<svg width="700" height="484" viewBox="0 0 700 484" fill="none" xmlns="http://www.w3.org/2000/svg">
<g clip-path="url(#clip0_3887_244)">
<path d="M72.4876 47L66.6976 38.18H63.2776V47H61.1476V25.85H67.6276C70.0076 25.85 71.7776 26.41 72.9376 27.53C74.1176 28.65 74.7076 30.16 74.7076 32.06C74.7076 33.82 74.2076 35.22 73.2076 36.26C72.2276 37.3 70.7976 37.92 68.9176 38.12L74.8876 47H72.4876ZM63.2776 36.59H67.4776C70.8776 36.59 72.5776 35.12 72.5776 32.18C72.5776 29.18 70.8776 27.68 67.4776 27.68H63.2776V36.59ZM85.3677 45.47C86.8477 45.47 88.0877 45.1 89.0877 44.36C90.0877 43.62 90.6877 42.62 90.8877 41.36H93.1077C92.8077 43.1 91.9777 44.51 90.6177 45.59C89.2577 46.67 87.5377 47.21 85.4577 47.21C83.8977 47.21 82.5077 46.88 81.2877 46.22C80.0877 45.54 79.1477 44.57 78.4677 43.31C77.7877 42.03 77.4477 40.53 77.4477 38.81C77.4477 37.09 77.7877 35.6 78.4677 34.34C79.1477 33.06 80.0877 32.09 81.2877 31.43C82.5077 30.75 83.8977 30.41 85.4577 30.41C87.0577 30.41 88.4377 30.75 89.5977 31.43C90.7777 32.09 91.6677 32.98 92.2677 34.1C92.8877 35.22 93.1977 36.44 93.1977 37.76C93.1977 38.32 93.1577 38.83 93.0777 39.29H79.5177C79.5377 40.67 79.8177 41.83 80.3577 42.77C80.9177 43.69 81.6377 44.37 82.5177 44.81C83.3977 45.25 84.3477 45.47 85.3677 45.47ZM85.4577 32.12C84.3977 32.12 83.4277 32.34 82.5477 32.78C81.6677 33.22 80.9477 33.9 80.3877 34.82C79.8477 35.72 79.5577 36.85 79.5177 38.21H91.0977C91.1777 36.87 90.9577 35.74 90.4377 34.82C89.9177 33.9 89.2177 33.22 88.3377 32.78C87.4577 32.34 86.4977 32.12 85.4577 32.12ZM104.208 30.41C106.288 30.41 108.008 30.96 109.368 32.06C110.748 33.16 111.588 34.62 111.888 36.44H109.698C109.478 35.14 108.868 34.12 107.868 33.38C106.868 32.62 105.638 32.24 104.178 32.24C103.118 32.24 102.138 32.48 101.238 32.96C100.358 33.44 99.6477 34.18 99.1077 35.18C98.5877 36.16 98.3277 37.37 98.3277 38.81C98.3277 40.25 98.5877 41.47 99.1077 42.47C99.6477 43.45 100.358 44.18 101.238 44.66C102.138 45.14 103.118 45.38 104.178 45.38C105.638 45.38 106.868 45.01 107.868 44.27C108.868 43.51 109.478 42.48 109.698 41.18H111.888C111.588 43 110.748 44.46 109.368 45.56C108.008 46.66 106.288 47.21 104.208 47.21C102.648 47.21 101.258 46.88 100.038 46.22C98.8377 45.54 97.8977 44.57 97.2177 43.31C96.5377 42.03 96.1977 40.53 96.1977 38.81C96.1977 37.09 96.5377 35.6 97.2177 34.34C97.8977 33.06 98.8377 32.09 100.038 31.43C101.258 30.75 102.648 30.41 104.208 30.41ZM122.809 45.47C124.289 45.47 125.529 45.1 126.529 44.36C127.529 43.62 128.129 42.62 128.329 41.36H130.549C130.249 43.1 129.419 44.51 128.059 45.59C126.699 46.67 124.979 47.21 122.899 47.21C121.339 47.21 119.949 46.88 118.729 46.22C117.529 45.54 116.589 44.57 115.909 43.31C115.229 42.03 114.889 40.53 114.889 38.81C114.889 37.09 115.229 35.6 115.909 34.34C116.589 33.06 117.529 32.09 118.729 31.43C119.949 30.75 121.339 30.41 122.899 30.41C124.499 30.41 125.879 30.75 127.039 31.43C128.219 32.09 129.109 32.98 129.709 34.1C130.329 35.22 130.639 36.44 130.639 37.76C130.639 38.32 130.599 38.83 130.519 39.29H116.959C116.979 40.67 117.259 41.83 117.799 42.77C118.359 43.69 119.079 44.37 119.959 44.81C120.839 45.25 121.789 45.47 122.809 45.47ZM122.899 32.12C121.839 32.12 120.869 32.34 119.989 32.78C119.109 33.22 118.389 33.9 117.829 34.82C117.289 35.72 116.999 36.85 116.959 38.21H128.539C128.619 36.87 128.399 35.74 127.879 34.82C127.359 33.9 126.659 33.22 125.779 32.78C124.899 32.34 123.939 32.12 122.899 32.12ZM143.179 30.41C144.679 30.41 145.999 30.75 147.139 31.43C148.299 32.09 149.199 33.06 149.839 34.34C150.499 35.6 150.829 37.09 150.829 38.81C150.829 40.51 150.499 42 149.839 43.28C149.199 44.54 148.299 45.51 147.139 46.19C145.979 46.87 144.659 47.21 143.179 47.21C141.499 47.21 140.079 46.78 138.919 45.92C137.759 45.06 136.959 43.92 136.519 42.5V54.74H134.419V30.62H136.519V35.12C136.959 33.7 137.759 32.56 138.919 31.7C140.079 30.84 141.499 30.41 143.179 30.41ZM142.609 32.27C141.449 32.27 140.399 32.54 139.459 33.08C138.539 33.62 137.819 34.39 137.299 35.39C136.779 36.37 136.519 37.51 136.519 38.81C136.519 40.11 136.779 41.26 137.299 42.26C137.819 43.24 138.539 44 139.459 44.54C140.399 45.08 141.449 45.35 142.609 45.35C144.469 45.35 145.949 44.77 147.049 43.61C148.149 42.43 148.699 40.83 148.699 38.81C148.699 36.79 148.149 35.2 147.049 34.04C145.949 32.86 144.469 32.27 142.609 32.27ZM161.835 30.41C163.915 30.41 165.635 30.96 166.995 32.06C168.375 33.16 169.215 34.62 169.515 36.44H167.325C167.105 35.14 166.495 34.12 165.495 33.38C164.495 32.62 163.265 32.24 161.805 32.24C160.745 32.24 159.765 32.48 158.865 32.96C157.985 33.44 157.275 34.18 156.735 35.18C156.215 36.16 155.955 37.37 155.955 38.81C155.955 40.25 156.215 41.47 156.735 42.47C157.275 43.45 157.985 44.18 158.865 44.66C159.765 45.14 160.745 45.38 161.805 45.38C163.265 45.38 164.495 45.01 165.495 44.27C166.495 43.51 167.105 42.48 167.325 41.18H169.515C169.215 43 168.375 44.46 166.995 45.56C165.635 46.66 163.915 47.21 161.835 47.21C160.275 47.21 158.885 46.88 157.665 46.22C156.465 45.54 155.525 44.57 154.845 43.31C154.165 42.03 153.825 40.53 153.825 38.81C153.825 37.09 154.165 35.6 154.845 34.34C155.525 33.06 156.465 32.09 157.665 31.43C158.885 30.75 160.275 30.41 161.835 30.41ZM172.816 25.76C172.816 25.32 172.956 24.97 173.236 24.71C173.536 24.45 173.916 24.32 174.376 24.32C174.836 24.32 175.206 24.45 175.486 24.71C175.766 24.97 175.906 25.32 175.906 25.76C175.906 26.18 175.766 26.52 175.486 26.78C175.206 27.04 174.836 27.17 174.376 27.17C173.916 27.17 173.536 27.04 173.236 26.78C172.956 26.52 172.816 26.18 172.816 25.76ZM175.426 30.62V47H173.296V30.62H175.426ZM187.386 30.41C188.946 30.41 190.336 30.75 191.556 31.43C192.796 32.09 193.766 33.06 194.466 34.34C195.166 35.6 195.516 37.09 195.516 38.81C195.516 40.53 195.166 42.02 194.466 43.28C193.766 44.54 192.796 45.51 191.556 46.19C190.336 46.87 188.946 47.21 187.386 47.21C185.826 47.21 184.426 46.87 183.186 46.19C181.946 45.51 180.966 44.54 180.246 43.28C179.546 42 179.196 40.51 179.196 38.81C179.196 37.09 179.546 35.6 180.246 34.34C180.966 33.06 181.946 32.09 183.186 31.43C184.426 30.75 185.826 30.41 187.386 30.41ZM187.386 32.24C186.306 32.24 185.306 32.48 184.386 32.96C183.466 33.44 182.726 34.18 182.166 35.18C181.606 36.16 181.326 37.37 181.326 38.81C181.326 40.25 181.606 41.46 182.166 42.44C182.726 43.42 183.466 44.15 184.386 44.63C185.306 45.11 186.306 45.35 187.386 45.35C188.446 45.35 189.426 45.11 190.326 44.63C191.246 44.15 191.986 43.42 192.546 42.44C193.106 41.46 193.386 40.25 193.386 38.81C193.386 37.37 193.106 36.16 192.546 35.18C191.986 34.18 191.246 33.44 190.326 32.96C189.426 32.48 188.446 32.24 187.386 32.24ZM192.486 25.67L186.336 29.3V27.74L192.486 23.9V25.67ZM207.472 30.32C209.372 30.32 210.912 30.93 212.092 32.15C213.292 33.35 213.892 35.12 213.892 37.46V47H211.822V37.61C211.822 35.83 211.372 34.47 210.472 33.53C209.572 32.57 208.342 32.09 206.782 32.09C205.142 32.09 203.832 32.62 202.852 33.68C201.892 34.72 201.412 36.26 201.412 38.3V47H199.282V30.62H201.412V34.64C201.832 33.24 202.592 32.17 203.692 31.43C204.792 30.69 206.052 30.32 207.472 30.32Z" fill="#333333"/>
<path d="M123.599 77.9887V76.2947L128.769 70.7507C129.253 70.2227 129.642 69.7387 129.935 69.2987C130.228 68.844 130.441 68.4113 130.573 68.0007C130.72 67.5753 130.793 67.15 130.793 66.7247C130.793 65.9033 130.544 65.28 130.045 64.8547C129.546 64.4293 128.813 64.2167 127.845 64.2167C127.097 64.2167 126.386 64.356 125.711 64.6347C125.051 64.9133 124.42 65.3387 123.819 65.9107L123.005 64.1727C123.592 63.6007 124.34 63.146 125.249 62.8087C126.158 62.4567 127.104 62.2807 128.087 62.2807C129.158 62.2807 130.06 62.4493 130.793 62.7867C131.541 63.1093 132.106 63.586 132.487 64.2167C132.868 64.8473 133.059 65.6173 133.059 66.5267C133.059 66.996 133 67.458 132.883 67.9127C132.78 68.3527 132.612 68.7927 132.377 69.2327C132.157 69.6727 131.871 70.1273 131.519 70.5967C131.182 71.066 130.771 71.55 130.287 72.0487L125.865 76.7127V76.0747H133.675V77.9887H123.599ZM141.52 78.1867C140.318 78.1867 139.306 77.8787 138.484 77.2627C137.663 76.6467 137.04 75.752 136.614 74.5787C136.189 73.3907 135.976 71.9387 135.976 70.2227C135.976 68.4773 136.189 67.018 136.614 65.8447C137.04 64.6713 137.663 63.784 138.484 63.1827C139.306 62.5813 140.318 62.2807 141.52 62.2807C142.738 62.2807 143.757 62.5813 144.578 63.1827C145.4 63.7693 146.016 64.6493 146.426 65.8227C146.852 66.996 147.064 68.4553 147.064 70.2007C147.064 71.9167 146.852 73.3687 146.426 74.5567C146.001 75.7447 145.378 76.6467 144.556 77.2627C143.735 77.8787 142.723 78.1867 141.52 78.1867ZM141.52 76.2947C142.65 76.2947 143.478 75.8033 144.006 74.8207C144.549 73.838 144.82 72.298 144.82 70.2007C144.82 68.1033 144.549 66.578 144.006 65.6247C143.478 64.6567 142.65 64.1727 141.52 64.1727C140.406 64.1727 139.577 64.6567 139.034 65.6247C138.492 66.578 138.22 68.1033 138.22 70.2007C138.22 72.298 138.492 73.838 139.034 74.8207C139.577 75.8033 140.406 76.2947 141.52 76.2947ZM149.41 77.9887V75.3707H152.028V77.9887H149.41ZM159.932 78.1867C158.73 78.1867 157.718 77.8787 156.896 77.2627C156.075 76.6467 155.452 75.752 155.026 74.5787C154.601 73.3907 154.388 71.9387 154.388 70.2227C154.388 68.4773 154.601 67.018 155.026 65.8447C155.452 64.6713 156.075 63.784 156.896 63.1827C157.718 62.5813 158.73 62.2807 159.932 62.2807C161.15 62.2807 162.169 62.5813 162.99 63.1827C163.812 63.7693 164.428 64.6493 164.838 65.8227C165.264 66.996 165.476 68.4553 165.476 70.2007C165.476 71.9167 165.264 73.3687 164.838 74.5567C164.413 75.7447 163.79 76.6467 162.968 77.2627C162.147 77.8787 161.135 78.1867 159.932 78.1867ZM159.932 76.2947C161.062 76.2947 161.89 75.8033 162.418 74.8207C162.961 73.838 163.232 72.298 163.232 70.2007C163.232 68.1033 162.961 66.578 162.418 65.6247C161.89 64.6567 161.062 64.1727 159.932 64.1727C158.818 64.1727 157.989 64.6567 157.446 65.6247C156.904 66.578 156.632 68.1033 156.632 70.2007C156.632 72.298 156.904 73.838 157.446 74.8207C157.989 75.8033 158.818 76.2947 159.932 76.2947ZM173.124 78.1867C171.921 78.1867 170.909 77.8787 170.088 77.2627C169.267 76.6467 168.643 75.752 168.218 74.5787C167.793 73.3907 167.58 71.9387 167.58 70.2227C167.58 68.4773 167.793 67.018 168.218 65.8447C168.643 64.6713 169.267 63.784 170.088 63.1827C170.909 62.5813 171.921 62.2807 173.124 62.2807C174.341 62.2807 175.361 62.5813 176.182 63.1827C177.003 63.7693 177.619 64.6493 178.03 65.8227C178.455 66.996 178.668 68.4553 178.668 70.2007C178.668 71.9167 178.455 73.3687 178.03 74.5567C177.605 75.7447 176.981 76.6467 176.16 77.2627C175.339 77.8787 174.327 78.1867 173.124 78.1867ZM173.124 76.2947C174.253 76.2947 175.082 75.8033 175.61 74.8207C176.153 73.838 176.424 72.298 176.424 70.2007C176.424 68.1033 176.153 66.578 175.61 65.6247C175.082 64.6567 174.253 64.1727 173.124 64.1727C172.009 64.1727 171.181 64.6567 170.638 65.6247C170.095 66.578 169.824 68.1033 169.824 70.2007C169.824 72.298 170.095 73.838 170.638 74.8207C171.181 75.8033 172.009 76.2947 173.124 76.2947ZM187.299 77.9887V62.4787H189.587V69.1667H198.277V62.4787H200.543V77.9887H198.277V71.0807H189.587V77.9887H187.299ZM209.334 78.1867C208.527 78.1867 207.757 78.1207 207.024 77.9887C206.305 77.842 205.638 77.6367 205.022 77.3727C204.42 77.094 203.885 76.764 203.416 76.3827L204.142 74.5787C204.64 74.9453 205.154 75.2533 205.682 75.5027C206.21 75.752 206.774 75.9427 207.376 76.0747C207.977 76.192 208.63 76.2507 209.334 76.2507C210.58 76.2507 211.497 76.0307 212.084 75.5907C212.685 75.136 212.986 74.5493 212.986 73.8307C212.986 73.4347 212.89 73.0973 212.7 72.8187C212.524 72.54 212.23 72.3053 211.82 72.1147C211.409 71.9093 210.874 71.7407 210.214 71.6087L207.86 71.1247C206.466 70.8313 205.425 70.3473 204.736 69.6727C204.061 68.998 203.724 68.0887 203.724 66.9447C203.724 66.006 203.973 65.1847 204.472 64.4807C204.97 63.7767 205.652 63.234 206.518 62.8527C207.398 62.4713 208.41 62.2807 209.554 62.2807C210.258 62.2807 210.925 62.354 211.556 62.5007C212.201 62.6327 212.795 62.838 213.338 63.1167C213.895 63.3953 214.379 63.7327 214.79 64.1287L214.042 65.8667C213.411 65.3093 212.729 64.8987 211.996 64.6347C211.262 64.356 210.441 64.2167 209.532 64.2167C208.813 64.2167 208.182 64.3267 207.64 64.5467C207.112 64.7667 206.701 65.0747 206.408 65.4707C206.129 65.8667 205.99 66.336 205.99 66.8787C205.99 67.4947 206.188 67.986 206.584 68.3527C206.98 68.7193 207.64 68.998 208.564 69.1887L210.896 69.6727C212.363 69.9807 213.455 70.4573 214.174 71.1027C214.892 71.748 215.252 72.606 215.252 73.6767C215.252 74.5713 215.01 75.3633 214.526 76.0527C214.042 76.7273 213.36 77.2553 212.48 77.6367C211.6 78.0033 210.551 78.1867 209.334 78.1867Z" fill="#DDC190"/>
<path d="M294.062 52.8125H293.965C300.898 52.8125 306.465 47.2461 306.465 40.3125C306.465 33.4766 300.898 27.8125 293.965 27.8125C288.594 27.8125 284.004 31.2305 282.246 36.0156H280.586C282.441 30.3516 287.715 26.25 294.062 26.25C301.777 26.25 308.125 32.5977 308.125 40.3125C308.125 48.125 301.777 54.375 294.062 54.375C290.84 54.375 288.008 53.3984 285.664 51.6406L286.738 50.5664C288.789 52.0312 291.328 52.8125 294.062 52.8125ZM252.656 38.75V38.8477H291.719C292.012 38.8477 292.305 38.9453 292.402 39.2383C292.5 39.5312 292.5 39.9219 292.207 40.1172L272.969 59.4531V74.6875H282.344C282.734 74.6875 283.125 75.0781 283.125 75.4688C283.125 75.957 282.734 76.25 282.344 76.25H272.188H262.031C261.543 76.25 261.25 75.957 261.25 75.4688C261.25 75.0781 261.543 74.6875 262.031 74.6875H271.406V59.4531L252.07 40.1172C251.875 39.9219 251.777 39.5312 251.875 39.2383C251.973 38.9453 252.266 38.75 252.656 38.75ZM289.766 40.3125H254.512L272.188 57.9883L289.766 40.3125Z" fill="#DDC190"/>
<path d="M347.333 51C347.333 52.4728 348.527 53.6667 350 53.6667C351.473 53.6667 352.667 52.4728 352.667 51C352.667 49.5272 351.473 48.3333 350 48.3333C348.527 48.3333 347.333 49.5272 347.333 51ZM330 51.5H350V50.5H330V51.5Z" fill="#BABABA"/>
<path d="M418.242 107.118L419.805 110.243C420 110.731 420 111.317 419.707 111.805L416.777 116.297C424.004 118.25 429.375 124.989 429.375 132.801C429.375 139.735 425.273 145.692 419.414 148.426C419.023 148.036 418.633 147.645 418.242 147.254C423.809 144.813 427.812 139.344 427.812 132.801C427.812 129.481 426.641 126.258 424.883 123.719C417.656 125.086 412.188 131.434 412.188 139.051C412.188 142.469 413.262 145.594 415.117 148.231C415.41 148.719 415.801 149.11 416.191 149.598C419.023 152.723 423.125 154.676 427.812 154.676C436.406 154.676 443.438 147.743 443.438 139.051C443.438 131.336 437.676 124.891 430.254 123.621C429.961 123.133 429.668 122.547 429.277 121.961C438.066 122.743 445 130.164 445 139.051C445 148.621 437.285 156.239 427.812 156.239C422.344 156.239 417.559 153.797 414.434 149.891C413.652 149.989 412.871 149.989 412.188 149.989C402.617 149.989 395 142.371 395 132.801C395 124.989 400.273 118.25 407.598 116.297L404.57 111.805C404.277 111.414 404.277 110.731 404.473 110.243L406.035 107.118C406.328 106.629 406.816 106.239 407.5 106.239H416.875C417.461 106.239 417.949 106.629 418.242 107.118ZM423.711 122.352C420.879 119.227 416.777 117.176 412.188 117.176C403.496 117.176 396.562 124.207 396.562 132.801C396.562 141.493 403.496 148.426 412.188 148.426C412.578 148.426 412.969 148.426 413.359 148.426C411.602 145.692 410.625 142.567 410.625 139.051C410.625 130.946 416.191 124.207 423.711 122.352ZM415.312 115.614L418.438 110.926L416.875 107.801H407.5L405.938 110.926L409.062 115.614H412.188H415.312Z" fill="#DDC190"/>
<path d="M495.535 88.6287C498.075 88.6287 500.175 89.2487 501.835 90.4887C503.495 91.7087 504.665 93.3987 505.345 95.5587H503.125C502.565 94.0387 501.635 92.8287 500.335 91.9287C499.035 91.0287 497.425 90.5787 495.505 90.5787C494.045 90.5787 492.715 90.9387 491.515 91.6587C490.335 92.3787 489.405 93.4087 488.725 94.7487C488.045 96.0887 487.705 97.6487 487.705 99.4287C487.705 101.209 488.045 102.769 488.725 104.109C489.405 105.429 490.335 106.449 491.515 107.169C492.715 107.889 494.045 108.249 495.505 108.249C497.425 108.249 499.035 107.799 500.335 106.899C501.635 105.999 502.565 104.789 503.125 103.269H505.345C504.665 105.429 503.495 107.129 501.835 108.369C500.175 109.589 498.075 110.199 495.535 110.199C493.595 110.199 491.865 109.739 490.345 108.819C488.825 107.899 487.645 106.629 486.805 105.009C485.965 103.369 485.545 101.509 485.545 99.4287C485.545 97.3287 485.965 95.4587 486.805 93.8187C487.645 92.1787 488.825 90.9087 490.345 90.0087C491.865 89.0887 493.595 88.6287 495.535 88.6287ZM516.315 108.459C517.795 108.459 519.035 108.089 520.035 107.349C521.035 106.609 521.635 105.609 521.835 104.349H524.055C523.755 106.089 522.925 107.499 521.565 108.579C520.205 109.659 518.485 110.199 516.405 110.199C514.845 110.199 513.455 109.869 512.235 109.209C511.035 108.529 510.095 107.559 509.415 106.299C508.735 105.019 508.395 103.519 508.395 101.799C508.395 100.079 508.735 98.5887 509.415 97.3287C510.095 96.0487 511.035 95.0787 512.235 94.4187C513.455 93.7387 514.845 93.3987 516.405 93.3987C518.005 93.3987 519.385 93.7387 520.545 94.4187C521.725 95.0787 522.615 95.9687 523.215 97.0887C523.835 98.2087 524.145 99.4287 524.145 100.749C524.145 101.309 524.105 101.819 524.025 102.279H510.465C510.485 103.659 510.765 104.819 511.305 105.759C511.865 106.679 512.585 107.359 513.465 107.799C514.345 108.239 515.295 108.459 516.315 108.459ZM516.405 95.1087C515.345 95.1087 514.375 95.3287 513.495 95.7687C512.615 96.2087 511.895 96.8887 511.335 97.8087C510.795 98.7087 510.505 99.8387 510.465 101.199H522.045C522.125 99.8587 521.905 98.7287 521.385 97.8087C520.865 96.8887 520.165 96.2087 519.285 95.7687C518.405 95.3287 517.445 95.1087 516.405 95.1087ZM530.055 96.9987C530.535 95.8187 531.305 94.9087 532.365 94.2687C533.425 93.6287 534.715 93.3087 536.235 93.3087V95.5887H535.545C533.965 95.5887 532.655 96.0187 531.615 96.8787C530.575 97.7187 530.055 99.0987 530.055 101.019V109.989H527.925V93.6087H530.055V96.9987ZM546.168 108.459C547.648 108.459 548.888 108.089 549.888 107.349C550.888 106.609 551.488 105.609 551.688 104.349H553.908C553.608 106.089 552.778 107.499 551.418 108.579C550.058 109.659 548.338 110.199 546.258 110.199C544.698 110.199 543.308 109.869 542.088 109.209C540.888 108.529 539.948 107.559 539.268 106.299C538.588 105.019 538.248 103.519 538.248 101.799C538.248 100.079 538.588 98.5887 539.268 97.3287C539.948 96.0487 540.888 95.0787 542.088 94.4187C543.308 93.7387 544.698 93.3987 546.258 93.3987C547.858 93.3987 549.238 93.7387 550.398 94.4187C551.578 95.0787 552.468 95.9687 553.068 97.0887C553.688 98.2087 553.998 99.4287 553.998 100.749C553.998 101.309 553.958 101.819 553.878 102.279H540.318C540.338 103.659 540.618 104.819 541.158 105.759C541.718 106.679 542.438 107.359 543.318 107.799C544.198 108.239 545.148 108.459 546.168 108.459ZM546.258 95.1087C545.198 95.1087 544.228 95.3287 543.348 95.7687C542.468 96.2087 541.748 96.8887 541.188 97.8087C540.648 98.7087 540.358 99.8387 540.318 101.199H551.898C551.978 99.8587 551.758 98.7287 551.238 97.8087C550.718 96.8887 550.018 96.2087 549.138 95.7687C548.258 95.3287 547.298 95.1087 546.258 95.1087ZM577.668 93.3087C579.548 93.3087 581.068 93.9187 582.228 95.1387C583.408 96.3387 583.998 98.1087 583.998 100.449V109.989H581.898V100.599C581.898 98.8387 581.468 97.4887 580.608 96.5487C579.768 95.6087 578.608 95.1387 577.128 95.1387C575.548 95.1387 574.288 95.6587 573.348 96.6987C572.408 97.7387 571.938 99.2687 571.938 101.289V109.989H569.868V100.599C569.868 98.8387 569.438 97.4887 568.578 96.5487C567.738 95.6087 566.578 95.1387 565.098 95.1387C563.518 95.1387 562.258 95.6587 561.318 96.6987C560.378 97.7387 559.908 99.2687 559.908 101.289V109.989H557.778V93.6087H559.908V97.5087C560.308 96.1287 561.028 95.0887 562.068 94.3887C563.128 93.6687 564.348 93.3087 565.728 93.3087C567.168 93.3087 568.408 93.6887 569.448 94.4487C570.488 95.2087 571.208 96.3287 571.608 97.8087C572.048 96.3487 572.818 95.2387 573.918 94.4787C575.018 93.6987 576.268 93.3087 577.668 93.3087ZM595.833 93.3987C597.393 93.3987 598.783 93.7387 600.003 94.4187C601.243 95.0787 602.213 96.0487 602.913 97.3287C603.613 98.5887 603.963 100.079 603.963 101.799C603.963 103.519 603.613 105.009 602.913 106.269C602.213 107.529 601.243 108.499 600.003 109.179C598.783 109.859 597.393 110.199 595.833 110.199C594.273 110.199 592.873 109.859 591.633 109.179C590.393 108.499 589.413 107.529 588.693 106.269C587.993 104.989 587.643 103.499 587.643 101.799C587.643 100.079 587.993 98.5887 588.693 97.3287C589.413 96.0487 590.393 95.0787 591.633 94.4187C592.873 93.7387 594.273 93.3987 595.833 93.3987ZM595.833 95.2287C594.753 95.2287 593.753 95.4687 592.833 95.9487C591.913 96.4287 591.173 97.1687 590.613 98.1687C590.053 99.1487 589.773 100.359 589.773 101.799C589.773 103.239 590.053 104.449 590.613 105.429C591.173 106.409 591.913 107.139 592.833 107.619C593.753 108.099 594.753 108.339 595.833 108.339C596.893 108.339 597.873 108.099 598.773 107.619C599.693 107.139 600.433 106.409 600.993 105.429C601.553 104.449 601.833 103.239 601.833 101.799C601.833 100.359 601.553 99.1487 600.993 98.1687C600.433 97.1687 599.693 96.4287 598.773 95.9487C597.873 95.4687 596.893 95.2287 595.833 95.2287ZM615.919 93.3087C617.819 93.3087 619.359 93.9187 620.539 95.1387C621.739 96.3387 622.339 98.1087 622.339 100.449V109.989H620.269V100.599C620.269 98.8187 619.819 97.4587 618.919 96.5187C618.019 95.5587 616.789 95.0787 615.229 95.0787C613.589 95.0787 612.279 95.6087 611.299 96.6687C610.339 97.7087 609.859 99.2487 609.859 101.289V109.989H607.729V93.6087H609.859V97.6287C610.279 96.2287 611.039 95.1587 612.139 94.4187C613.239 93.6787 614.499 93.3087 615.919 93.3087ZM626.292 88.7487C626.292 88.3087 626.432 87.9587 626.712 87.6987C627.012 87.4387 627.392 87.3087 627.852 87.3087C628.312 87.3087 628.682 87.4387 628.962 87.6987C629.242 87.9587 629.382 88.3087 629.382 88.7487C629.382 89.1687 629.242 89.5087 628.962 89.7687C628.682 90.0287 628.312 90.1587 627.852 90.1587C627.392 90.1587 627.012 90.0287 626.712 89.7687C626.432 89.5087 626.292 89.1687 626.292 88.7487ZM628.902 93.6087V109.989H626.772V93.6087H628.902ZM640.352 93.3987C642.012 93.3987 643.422 93.8287 644.582 94.6887C645.762 95.5487 646.572 96.6887 647.012 98.1087V93.6087H649.082V109.989H647.012V105.489C646.572 106.909 645.762 108.049 644.582 108.909C643.422 109.769 642.012 110.199 640.352 110.199C638.872 110.199 637.542 109.859 636.362 109.179C635.202 108.499 634.292 107.529 633.632 106.269C632.992 104.989 632.672 103.499 632.672 101.799C632.672 100.079 632.992 98.5887 633.632 97.3287C634.292 96.0487 635.202 95.0787 636.362 94.4187C637.522 93.7387 638.852 93.3987 640.352 93.3987ZM640.892 95.2587C639.052 95.2587 637.572 95.8487 636.452 97.0287C635.352 98.1887 634.802 99.7787 634.802 101.799C634.802 103.819 635.352 105.419 636.452 106.599C637.572 107.759 639.052 108.339 640.892 108.339C642.052 108.339 643.092 108.069 644.012 107.529C644.952 106.989 645.682 106.229 646.202 105.249C646.742 104.249 647.012 103.099 647.012 101.799C647.012 100.499 646.742 99.3587 646.202 98.3787C645.682 97.3787 644.952 96.6087 644.012 96.0687C643.092 95.5287 642.052 95.2587 640.892 95.2587ZM495.535 121.629C498.075 121.629 500.175 122.249 501.835 123.489C503.495 124.709 504.665 126.399 505.345 128.559H503.125C502.565 127.039 501.635 125.829 500.335 124.929C499.035 124.029 497.425 123.579 495.505 123.579C494.045 123.579 492.715 123.939 491.515 124.659C490.335 125.379 489.405 126.409 488.725 127.749C488.045 129.089 487.705 130.649 487.705 132.429C487.705 134.209 488.045 135.769 488.725 137.109C489.405 138.429 490.335 139.449 491.515 140.169C492.715 140.889 494.045 141.249 495.505 141.249C497.425 141.249 499.035 140.799 500.335 139.899C501.635 138.999 502.565 137.789 503.125 136.269H505.345C504.665 138.429 503.495 140.129 501.835 141.369C500.175 142.589 498.075 143.199 495.535 143.199C493.595 143.199 491.865 142.739 490.345 141.819C488.825 140.899 487.645 139.629 486.805 138.009C485.965 136.369 485.545 134.509 485.545 132.429C485.545 130.329 485.965 128.459 486.805 126.819C487.645 125.179 488.825 123.909 490.345 123.009C491.865 122.089 493.595 121.629 495.535 121.629ZM508.695 121.749C508.695 121.309 508.835 120.959 509.115 120.699C509.415 120.439 509.795 120.309 510.255 120.309C510.715 120.309 511.085 120.439 511.365 120.699C511.645 120.959 511.785 121.309 511.785 121.749C511.785 122.169 511.645 122.509 511.365 122.769C511.085 123.029 510.715 123.159 510.255 123.159C509.795 123.159 509.415 123.029 509.115 122.769C508.835 122.509 508.695 122.169 508.695 121.749ZM511.305 126.609V142.989H509.175V126.609H511.305ZM521.914 140.619L527.404 126.609H529.684L523.084 142.989H520.684L514.084 126.609H516.364L521.914 140.619ZM531.986 121.749C531.986 121.309 532.126 120.959 532.406 120.699C532.706 120.439 533.086 120.309 533.546 120.309C534.006 120.309 534.376 120.439 534.656 120.699C534.936 120.959 535.076 121.309 535.076 121.749C535.076 122.169 534.936 122.509 534.656 122.769C534.376 123.029 534.006 123.159 533.546 123.159C533.086 123.159 532.706 123.029 532.406 122.769C532.126 122.509 531.986 122.169 531.986 121.749ZM534.596 126.609V142.989H532.466V126.609H534.596ZM541.275 120.789V142.989H539.145V120.789H541.275Z" fill="#333333"/>
<path d="M485.825 173.977V172.283L490.995 166.739C491.479 166.211 491.868 165.727 492.161 165.287C492.454 164.833 492.667 164.4 492.799 163.989C492.946 163.564 493.019 163.139 493.019 162.713C493.019 161.892 492.77 161.269 492.271 160.843C491.772 160.418 491.039 160.205 490.071 160.205C489.323 160.205 488.612 160.345 487.937 160.623C487.277 160.902 486.646 161.327 486.045 161.899L485.231 160.161C485.818 159.589 486.566 159.135 487.475 158.797C488.384 158.445 489.33 158.269 490.313 158.269C491.384 158.269 492.286 158.438 493.019 158.775C493.767 159.098 494.332 159.575 494.713 160.205C495.094 160.836 495.285 161.606 495.285 162.515C495.285 162.985 495.226 163.447 495.109 163.901C495.006 164.341 494.838 164.781 494.603 165.221C494.383 165.661 494.097 166.116 493.745 166.585C493.408 167.055 492.997 167.539 492.513 168.037L488.091 172.701V172.063H495.901V173.977H485.825ZM499.72 173.977V172.063H503.24V160.403H504.384L500.49 162.823L499.566 161.129L503.9 158.467H505.506V172.063H508.806V173.977H499.72ZM511.636 173.977V171.359H514.254V173.977H511.636ZM522.159 174.175C520.956 174.175 519.944 173.867 519.123 173.251C518.301 172.635 517.678 171.741 517.253 170.567C516.827 169.379 516.615 167.927 516.615 166.211C516.615 164.466 516.827 163.007 517.253 161.833C517.678 160.66 518.301 159.773 519.123 159.171C519.944 158.57 520.956 158.269 522.159 158.269C523.376 158.269 524.395 158.57 525.217 159.171C526.038 159.758 526.654 160.638 527.065 161.811C527.49 162.985 527.703 164.444 527.703 166.189C527.703 167.905 527.49 169.357 527.065 170.545C526.639 171.733 526.016 172.635 525.195 173.251C524.373 173.867 523.361 174.175 522.159 174.175ZM522.159 172.283C523.288 172.283 524.117 171.792 524.645 170.809C525.187 169.827 525.459 168.287 525.459 166.189C525.459 164.092 525.187 162.567 524.645 161.613C524.117 160.645 523.288 160.161 522.159 160.161C521.044 160.161 520.215 160.645 519.673 161.613C519.13 162.567 518.859 164.092 518.859 166.189C518.859 168.287 519.13 169.827 519.673 170.809C520.215 171.792 521.044 172.283 522.159 172.283ZM535.35 174.175C534.147 174.175 533.135 173.867 532.314 173.251C531.493 172.635 530.869 171.741 530.444 170.567C530.019 169.379 529.806 167.927 529.806 166.211C529.806 164.466 530.019 163.007 530.444 161.833C530.869 160.66 531.493 159.773 532.314 159.171C533.135 158.57 534.147 158.269 535.35 158.269C536.567 158.269 537.587 158.57 538.408 159.171C539.229 159.758 539.845 160.638 540.256 161.811C540.681 162.985 540.894 164.444 540.894 166.189C540.894 167.905 540.681 169.357 540.256 170.545C539.831 171.733 539.207 172.635 538.386 173.251C537.565 173.867 536.553 174.175 535.35 174.175ZM535.35 172.283C536.479 172.283 537.308 171.792 537.836 170.809C538.379 169.827 538.65 168.287 538.65 166.189C538.65 164.092 538.379 162.567 537.836 161.613C537.308 160.645 536.479 160.161 535.35 160.161C534.235 160.161 533.407 160.645 532.864 161.613C532.321 162.567 532.05 164.092 532.05 166.189C532.05 168.287 532.321 169.827 532.864 170.809C533.407 171.792 534.235 172.283 535.35 172.283ZM549.525 173.977V158.467H555.949C557.078 158.467 558.031 158.658 558.809 159.039C559.586 159.406 560.173 159.941 560.569 160.645C560.979 161.349 561.185 162.2 561.185 163.197C561.185 164.195 560.979 165.053 560.569 165.771C560.173 166.475 559.586 167.018 558.809 167.399C558.031 167.766 557.078 167.949 555.949 167.949H551.813V173.977H549.525ZM551.813 166.123H555.619C556.719 166.123 557.547 165.881 558.105 165.397C558.677 164.899 558.963 164.165 558.963 163.197C558.963 162.244 558.677 161.525 558.105 161.041C557.547 160.543 556.719 160.293 555.619 160.293H551.813V166.123ZM563.684 173.977V158.467H565.598L571.692 169.819H571.01L577.06 158.467H578.93V173.977H576.884V161.701H577.368L572.022 171.601H570.636L565.224 161.679H565.752V173.977H563.684Z" fill="#DDC190"/>
<path d="M352.667 131C352.667 132.473 351.473 133.667 350 133.667C348.527 133.667 347.333 132.473 347.333 131C347.333 129.527 348.527 128.333 350 128.333C351.473 128.333 352.667 129.527 352.667 131ZM370 131.5H350V130.5H370V131.5Z" fill="#BABABA"/>
<path d="M146.707 184.617C149.247 184.617 151.347 185.237 153.007 186.477C154.667 187.697 155.837 189.387 156.517 191.547H154.297C153.737 190.027 152.807 188.817 151.507 187.917C150.207 187.017 148.597 186.567 146.677 186.567C145.217 186.567 143.887 186.927 142.687 187.647C141.507 188.367 140.577 189.397 139.897 190.737C139.217 192.077 138.877 193.637 138.877 195.417C138.877 197.197 139.217 198.757 139.897 200.097C140.577 201.417 141.507 202.437 142.687 203.157C143.887 203.877 145.217 204.237 146.677 204.237C148.597 204.237 150.207 203.787 151.507 202.887C152.807 201.987 153.737 200.777 154.297 199.257H156.517C155.837 201.417 154.667 203.117 153.007 204.357C151.347 205.577 149.247 206.187 146.707 206.187C144.767 206.187 143.037 205.727 141.517 204.807C139.997 203.887 138.817 202.617 137.977 200.997C137.137 199.357 136.717 197.497 136.717 195.417C136.717 193.317 137.137 191.447 137.977 189.807C138.817 188.167 139.997 186.897 141.517 185.997C143.037 185.077 144.767 184.617 146.707 184.617ZM167.487 204.447C168.967 204.447 170.207 204.077 171.207 203.337C172.207 202.597 172.807 201.597 173.007 200.337H175.227C174.927 202.077 174.097 203.487 172.737 204.567C171.377 205.647 169.657 206.187 167.577 206.187C166.017 206.187 164.627 205.857 163.407 205.197C162.207 204.517 161.267 203.547 160.587 202.287C159.907 201.007 159.567 199.507 159.567 197.787C159.567 196.067 159.907 194.577 160.587 193.317C161.267 192.037 162.207 191.067 163.407 190.407C164.627 189.727 166.017 189.387 167.577 189.387C169.177 189.387 170.557 189.727 171.717 190.407C172.897 191.067 173.787 191.957 174.387 193.077C175.007 194.197 175.317 195.417 175.317 196.737C175.317 197.297 175.277 197.807 175.197 198.267H161.637C161.657 199.647 161.937 200.807 162.477 201.747C163.037 202.667 163.757 203.347 164.637 203.787C165.517 204.227 166.467 204.447 167.487 204.447ZM167.577 191.097C166.517 191.097 165.547 191.317 164.667 191.757C163.787 192.197 163.067 192.877 162.507 193.797C161.967 194.697 161.677 195.827 161.637 197.187H173.217C173.297 195.847 173.077 194.717 172.557 193.797C172.037 192.877 171.337 192.197 170.457 191.757C169.577 191.317 168.617 191.097 167.577 191.097ZM187.287 189.297C189.187 189.297 190.727 189.907 191.907 191.127C193.107 192.327 193.707 194.097 193.707 196.437V205.977H191.637V196.587C191.637 194.807 191.187 193.447 190.287 192.507C189.387 191.547 188.157 191.067 186.597 191.067C184.957 191.067 183.647 191.597 182.667 192.657C181.707 193.697 181.227 195.237 181.227 197.277V205.977H179.097V189.597H181.227V193.617C181.647 192.217 182.407 191.147 183.507 190.407C184.607 189.667 185.867 189.297 187.287 189.297ZM205.04 189.387C206.7 189.387 208.11 189.817 209.27 190.677C210.45 191.537 211.26 192.677 211.7 194.097V189.597H213.77V205.977H211.7V201.477C211.26 202.897 210.45 204.037 209.27 204.897C208.11 205.757 206.7 206.187 205.04 206.187C203.56 206.187 202.23 205.847 201.05 205.167C199.89 204.487 198.98 203.517 198.32 202.257C197.68 200.977 197.36 199.487 197.36 197.787C197.36 196.067 197.68 194.577 198.32 193.317C198.98 192.037 199.89 191.067 201.05 190.407C202.21 189.727 203.54 189.387 205.04 189.387ZM205.58 191.247C203.74 191.247 202.26 191.837 201.14 193.017C200.04 194.177 199.49 195.767 199.49 197.787C199.49 199.807 200.04 201.407 201.14 202.587C202.26 203.747 203.74 204.327 205.58 204.327C206.74 204.327 207.78 204.057 208.7 203.517C209.64 202.977 210.37 202.217 210.89 201.237C211.43 200.237 211.7 199.087 211.7 197.787C211.7 196.487 211.43 195.347 210.89 194.367C210.37 193.367 209.64 192.597 208.7 192.057C207.78 191.517 206.74 191.247 205.58 191.247Z" fill="#333333"/>
<path d="M123.599 236.966V235.272L128.769 229.728C129.253 229.2 129.642 228.716 129.935 228.276C130.228 227.821 130.441 227.389 130.573 226.978C130.72 226.553 130.793 226.127 130.793 225.702C130.793 224.881 130.544 224.257 130.045 223.832C129.546 223.407 128.813 223.194 127.845 223.194C127.097 223.194 126.386 223.333 125.711 223.612C125.051 223.891 124.42 224.316 123.819 224.888L123.005 223.15C123.592 222.578 124.34 222.123 125.249 221.786C126.158 221.434 127.104 221.258 128.087 221.258C129.158 221.258 130.06 221.427 130.793 221.764C131.541 222.087 132.106 222.563 132.487 223.194C132.868 223.825 133.059 224.595 133.059 225.504C133.059 225.973 133 226.435 132.883 226.89C132.78 227.33 132.612 227.77 132.377 228.21C132.157 228.65 131.871 229.105 131.519 229.574C131.182 230.043 130.771 230.527 130.287 231.026L125.865 235.69V235.052H133.675V236.966H123.599ZM136.79 236.966V235.272L141.96 229.728C142.444 229.2 142.833 228.716 143.126 228.276C143.42 227.821 143.632 227.389 143.764 226.978C143.911 226.553 143.984 226.127 143.984 225.702C143.984 224.881 143.735 224.257 143.236 223.832C142.738 223.407 142.004 223.194 141.036 223.194C140.288 223.194 139.577 223.333 138.902 223.612C138.242 223.891 137.612 224.316 137.01 224.888L136.196 223.15C136.783 222.578 137.531 222.123 138.44 221.786C139.35 221.434 140.296 221.258 141.278 221.258C142.349 221.258 143.251 221.427 143.984 221.764C144.732 222.087 145.297 222.563 145.678 223.194C146.06 223.825 146.25 224.595 146.25 225.504C146.25 225.973 146.192 226.435 146.074 226.89C145.972 227.33 145.803 227.77 145.568 228.21C145.348 228.65 145.062 229.105 144.71 229.574C144.373 230.043 143.962 230.527 143.478 231.026L139.056 235.69V235.052H146.866V236.966H136.79ZM149.41 236.966V234.348H152.028V236.966H149.41ZM159.932 237.164C158.73 237.164 157.718 236.856 156.896 236.24C156.075 235.624 155.452 234.729 155.026 233.556C154.601 232.368 154.388 230.916 154.388 229.2C154.388 227.455 154.601 225.995 155.026 224.822C155.452 223.649 156.075 222.761 156.896 222.16C157.718 221.559 158.73 221.258 159.932 221.258C161.15 221.258 162.169 221.559 162.99 222.16C163.812 222.747 164.428 223.627 164.838 224.8C165.264 225.973 165.476 227.433 165.476 229.178C165.476 230.894 165.264 232.346 164.838 233.534C164.413 234.722 163.79 235.624 162.968 236.24C162.147 236.856 161.135 237.164 159.932 237.164ZM159.932 235.272C161.062 235.272 161.89 234.781 162.418 233.798C162.961 232.815 163.232 231.275 163.232 229.178C163.232 227.081 162.961 225.555 162.418 224.602C161.89 223.634 161.062 223.15 159.932 223.15C158.818 223.15 157.989 223.634 157.446 224.602C156.904 225.555 156.632 227.081 156.632 229.178C156.632 231.275 156.904 232.815 157.446 233.798C157.989 234.781 158.818 235.272 159.932 235.272ZM173.124 237.164C171.921 237.164 170.909 236.856 170.088 236.24C169.267 235.624 168.643 234.729 168.218 233.556C167.793 232.368 167.58 230.916 167.58 229.2C167.58 227.455 167.793 225.995 168.218 224.822C168.643 223.649 169.267 222.761 170.088 222.16C170.909 221.559 171.921 221.258 173.124 221.258C174.341 221.258 175.361 221.559 176.182 222.16C177.003 222.747 177.619 223.627 178.03 224.8C178.455 225.973 178.668 227.433 178.668 229.178C178.668 230.894 178.455 232.346 178.03 233.534C177.605 234.722 176.981 235.624 176.16 236.24C175.339 236.856 174.327 237.164 173.124 237.164ZM173.124 235.272C174.253 235.272 175.082 234.781 175.61 233.798C176.153 232.815 176.424 231.275 176.424 229.178C176.424 227.081 176.153 225.555 175.61 224.602C175.082 223.634 174.253 223.15 173.124 223.15C172.009 223.15 171.181 223.634 170.638 224.602C170.095 225.555 169.824 227.081 169.824 229.178C169.824 231.275 170.095 232.815 170.638 233.798C171.181 234.781 172.009 235.272 173.124 235.272ZM187.299 236.966V221.456H189.587V228.144H198.277V221.456H200.543V236.966H198.277V230.058H189.587V236.966H187.299ZM209.334 237.164C208.527 237.164 207.757 237.098 207.024 236.966C206.305 236.819 205.638 236.614 205.022 236.35C204.42 236.071 203.885 235.741 203.416 235.36L204.142 233.556C204.64 233.923 205.154 234.231 205.682 234.48C206.21 234.729 206.774 234.92 207.376 235.052C207.977 235.169 208.63 235.228 209.334 235.228C210.58 235.228 211.497 235.008 212.084 234.568C212.685 234.113 212.986 233.527 212.986 232.808C212.986 232.412 212.89 232.075 212.7 231.796C212.524 231.517 212.23 231.283 211.82 231.092C211.409 230.887 210.874 230.718 210.214 230.586L207.86 230.102C206.466 229.809 205.425 229.325 204.736 228.65C204.061 227.975 203.724 227.066 203.724 225.922C203.724 224.983 203.973 224.162 204.472 223.458C204.97 222.754 205.652 222.211 206.518 221.83C207.398 221.449 208.41 221.258 209.554 221.258C210.258 221.258 210.925 221.331 211.556 221.478C212.201 221.61 212.795 221.815 213.338 222.094C213.895 222.373 214.379 222.71 214.79 223.106L214.042 224.844C213.411 224.287 212.729 223.876 211.996 223.612C211.262 223.333 210.441 223.194 209.532 223.194C208.813 223.194 208.182 223.304 207.64 223.524C207.112 223.744 206.701 224.052 206.408 224.448C206.129 224.844 205.99 225.313 205.99 225.856C205.99 226.472 206.188 226.963 206.584 227.33C206.98 227.697 207.64 227.975 208.564 228.166L210.896 228.65C212.363 228.958 213.455 229.435 214.174 230.08C214.892 230.725 215.252 231.583 215.252 232.654C215.252 233.549 215.01 234.341 214.526 235.03C214.042 235.705 213.36 236.233 212.48 236.614C211.6 236.981 210.551 237.164 209.334 237.164Z" fill="#DDC190"/>
<path d="M262.129 185.325C262.52 185.325 262.812 185.716 262.715 186.204L260.469 199.778C260.469 200.071 260.469 200.364 260.469 200.657V201.634C260.469 204.661 262.91 207.102 265.938 207.102H272.188C275.117 207.102 277.656 204.661 277.656 201.634V200.657C277.656 200.364 277.559 200.071 277.559 199.778L275.312 186.204C275.215 185.716 275.508 185.325 275.898 185.325C276.387 185.227 276.777 185.52 276.777 185.911L279.121 199.485C279.121 199.876 279.219 200.266 279.219 200.657V201.634C279.219 205.54 275.996 208.665 272.188 208.665H269.844V234.446C269.844 234.934 269.453 235.227 269.062 235.227C268.574 235.227 268.281 234.934 268.281 234.446V208.665H265.938C262.031 208.665 258.906 205.54 258.906 201.634V200.657C258.906 200.266 258.906 199.876 259.004 199.485L261.25 185.911C261.25 185.52 261.738 185.227 262.129 185.325ZM266.719 185.227C267.109 185.325 267.5 185.618 267.5 186.106L266.719 201.731C266.621 202.122 266.328 202.512 265.84 202.415C265.449 202.415 265.059 202.024 265.156 201.634L265.938 186.009C265.938 185.618 266.328 185.227 266.719 185.227ZM271.309 185.227C271.797 185.227 272.09 185.618 272.188 186.009L272.969 201.634C272.969 202.024 272.578 202.415 272.188 202.415C271.797 202.512 271.406 202.122 271.406 201.731L270.625 186.106C270.527 185.618 270.918 185.325 271.309 185.227ZM287.812 202.415V214.915C287.812 216.673 289.18 218.04 290.938 218.04H298.75V187.571C298.75 187.18 298.359 186.79 297.969 186.79C297.871 186.79 297.773 186.887 297.383 186.985C296.992 186.985 296.602 187.18 296.016 187.376C295.039 187.864 293.77 188.645 292.5 189.719C290.156 191.966 287.812 195.872 287.812 202.415ZM297.969 185.227C299.238 185.227 300.312 186.302 300.312 187.571V218.04V218.821V219.602V234.446C300.312 234.934 299.922 235.227 299.531 235.227C299.043 235.227 298.75 234.934 298.75 234.446V219.602H290.938C288.301 219.602 286.25 217.552 286.25 214.915V202.415C286.25 188.352 296.406 185.227 297.969 185.227Z" fill="#DDC190"/>
<path d="M347.333 209.977C347.333 211.45 348.527 212.644 350 212.644C351.473 212.644 352.667 211.45 352.667 209.977C352.667 208.505 351.473 207.311 350 207.311C348.527 207.311 347.333 208.505 347.333 209.977ZM330 210.477H350V209.477H330V210.477Z" fill="#BABABA"/>
<path d="M422.344 252.22L432.598 248.411C434.062 247.923 435.625 248.509 436.406 249.778L444.414 263.45C448.125 269.896 445.391 278.196 438.652 281.126L443.242 293.724L450.176 291.185C450.566 290.989 451.055 291.185 451.152 291.575C451.348 292.064 451.152 292.454 450.664 292.65L443.047 295.384L435.332 298.216C434.941 298.411 434.453 298.118 434.258 297.728C434.16 297.337 434.355 296.849 434.746 296.751L441.777 294.212L437.188 281.614C430.059 283.763 422.637 279.173 421.367 271.849L421.172 270.384L422.051 264.915L439.727 258.568L435.039 250.56C434.648 249.974 433.867 249.681 433.184 249.876L423.125 253.587C422.93 253.099 422.637 252.611 422.344 252.22ZM443.047 264.232L440.508 259.935L422.051 266.575L422.93 271.556C424.102 278.196 431.035 282.298 437.383 279.954C443.73 277.611 446.465 270.091 443.047 264.232ZM396.855 264.232C393.438 270.091 396.172 277.611 402.52 279.954C408.965 282.2 415.801 278.196 416.973 271.556L417.852 266.575L399.395 259.935L396.855 264.232ZM418.047 265.013L419.609 255.931C419.805 255.247 419.316 254.466 418.633 254.271L406.719 249.876C406.035 249.681 405.254 249.974 404.863 250.56L400.273 258.568L418.047 265.013ZM418.535 271.849C417.266 279.173 409.844 283.763 402.715 281.614L398.223 294.212L405.156 296.751C405.547 296.946 405.742 297.337 405.645 297.728C405.449 298.216 405.059 298.411 404.57 298.216L396.953 295.384L389.238 292.65C388.848 292.454 388.555 292.064 388.75 291.575C388.945 291.185 389.336 290.989 389.727 291.185L396.758 293.724L401.25 281.126C394.512 278.196 391.777 269.896 395.586 263.45L403.496 249.778C404.277 248.509 405.84 247.923 407.305 248.411L419.121 252.806C420.586 253.294 421.465 254.759 421.172 256.224L418.535 271.849Z" fill="#DDC190"/>
<path d="M495.925 258.016C497.245 258.276 498.315 258.886 499.135 259.846C499.955 260.806 500.365 261.946 500.365 263.266C500.365 264.966 499.785 266.346 498.625 267.406C497.465 268.446 495.785 268.966 493.585 268.966H486.235V247.816H493.495C495.615 247.816 497.205 248.296 498.265 249.256C499.345 250.196 499.885 251.466 499.885 253.066C499.885 254.446 499.515 255.556 498.775 256.396C498.035 257.216 497.085 257.756 495.925 258.016ZM488.365 257.266H493.225C494.705 257.266 495.825 256.926 496.585 256.246C497.365 255.546 497.755 254.596 497.755 253.396C497.755 252.216 497.375 251.286 496.615 250.606C495.855 249.926 494.685 249.586 493.105 249.586H488.365V257.266ZM493.225 267.166C494.805 267.166 496.035 266.806 496.915 266.086C497.795 265.346 498.235 264.326 498.235 263.026C498.235 261.746 497.785 260.736 496.885 259.996C495.985 259.236 494.745 258.856 493.165 258.856H488.365V267.166H493.225ZM506.09 255.976C506.57 254.796 507.34 253.886 508.4 253.246C509.46 252.606 510.75 252.286 512.27 252.286V254.566H511.58C510 254.566 508.69 254.996 507.65 255.856C506.61 256.696 506.09 258.076 506.09 259.996V268.966H503.96V252.586H506.09V255.976ZM514.583 247.726C514.583 247.286 514.723 246.936 515.003 246.676C515.303 246.416 515.683 246.286 516.143 246.286C516.603 246.286 516.973 246.416 517.253 246.676C517.533 246.936 517.673 247.286 517.673 247.726C517.673 248.146 517.533 248.486 517.253 248.746C516.973 249.006 516.603 249.136 516.143 249.136C515.683 249.136 515.303 249.006 515.003 248.746C514.723 248.486 514.583 248.146 514.583 247.726ZM517.193 252.586V268.966H515.063V252.586H517.193ZM529.933 252.286C531.833 252.286 533.373 252.896 534.553 254.116C535.753 255.316 536.353 257.086 536.353 259.426V268.966H534.283V259.576C534.283 257.796 533.833 256.436 532.933 255.496C532.033 254.536 530.803 254.056 529.243 254.056C527.603 254.056 526.293 254.586 525.313 255.646C524.353 256.686 523.873 258.226 523.873 260.266V268.966H521.743V252.586H523.873V256.606C524.293 255.206 525.053 254.136 526.153 253.396C527.253 252.656 528.513 252.286 529.933 252.286ZM547.686 252.376C549.346 252.376 550.756 252.806 551.916 253.666C553.096 254.526 553.896 255.666 554.316 257.086V246.766H556.416V268.966H554.316V264.466C553.896 265.886 553.096 267.026 551.916 267.886C550.756 268.746 549.346 269.176 547.686 269.176C546.206 269.176 544.876 268.836 543.696 268.156C542.536 267.476 541.626 266.506 540.966 265.246C540.326 263.966 540.006 262.476 540.006 260.776C540.006 259.056 540.326 257.566 540.966 256.306C541.626 255.026 542.536 254.056 543.696 253.396C544.856 252.716 546.186 252.376 547.686 252.376ZM548.226 254.236C546.386 254.236 544.906 254.826 543.786 256.006C542.686 257.166 542.136 258.756 542.136 260.776C542.136 262.796 542.686 264.396 543.786 265.576C544.906 266.736 546.386 267.316 548.226 267.316C549.386 267.316 550.426 267.046 551.346 266.506C552.286 265.966 553.016 265.206 553.536 264.226C554.076 263.226 554.346 262.076 554.346 260.776C554.346 259.476 554.076 258.336 553.536 257.356C553.016 256.356 552.286 255.586 551.346 255.046C550.426 254.506 549.386 254.236 548.226 254.236ZM560.491 247.726C560.491 247.286 560.631 246.936 560.911 246.676C561.211 246.416 561.591 246.286 562.051 246.286C562.511 246.286 562.881 246.416 563.161 246.676C563.441 246.936 563.581 247.286 563.581 247.726C563.581 248.146 563.441 248.486 563.161 248.746C562.881 249.006 562.511 249.136 562.051 249.136C561.591 249.136 561.211 249.006 560.911 248.746C560.631 248.486 560.491 248.146 560.491 247.726ZM563.101 252.586V268.966H560.971V252.586H563.101ZM572.601 252.376C574.381 252.376 575.811 252.846 576.891 253.786C577.971 254.726 578.631 255.996 578.871 257.596H576.861C576.741 256.536 576.301 255.666 575.541 254.986C574.801 254.286 573.801 253.936 572.541 253.936C571.461 253.936 570.611 254.206 569.991 254.746C569.391 255.266 569.091 255.966 569.091 256.846C569.091 257.506 569.281 258.036 569.661 258.436C570.061 258.836 570.551 259.146 571.131 259.366C571.711 259.566 572.491 259.776 573.471 259.996C574.671 260.276 575.631 260.566 576.351 260.866C577.091 261.146 577.721 261.596 578.241 262.216C578.761 262.836 579.021 263.676 579.021 264.736C579.021 266.036 578.531 267.106 577.551 267.946C576.591 268.766 575.311 269.176 573.711 269.176C571.831 269.176 570.291 268.716 569.091 267.796C567.891 266.856 567.181 265.576 566.961 263.956H569.001C569.121 265.036 569.591 265.916 570.411 266.596C571.231 267.276 572.341 267.616 573.741 267.616C574.781 267.616 575.591 267.346 576.171 266.806C576.751 266.266 577.041 265.566 577.041 264.706C577.041 264.006 576.841 263.446 576.441 263.026C576.041 262.606 575.541 262.296 574.941 262.096C574.361 261.876 573.561 261.646 572.541 261.406C571.361 261.126 570.411 260.846 569.691 260.566C568.991 260.286 568.391 259.856 567.891 259.276C567.391 258.676 567.141 257.866 567.141 256.846C567.141 255.506 567.631 254.426 568.611 253.606C569.591 252.786 570.921 252.376 572.601 252.376Z" fill="#333333"/>
<path d="M485.825 299.955V298.261L490.995 292.717C491.479 292.189 491.868 291.705 492.161 291.265C492.454 290.81 492.667 290.377 492.799 289.967C492.946 289.541 493.019 289.116 493.019 288.691C493.019 287.869 492.77 287.246 492.271 286.821C491.772 286.395 491.039 286.183 490.071 286.183C489.323 286.183 488.612 286.322 487.937 286.601C487.277 286.879 486.646 287.305 486.045 287.877L485.231 286.139C485.818 285.567 486.566 285.112 487.475 284.775C488.384 284.423 489.33 284.247 490.313 284.247C491.384 284.247 492.286 284.415 493.019 284.753C493.767 285.075 494.332 285.552 494.713 286.183C495.094 286.813 495.285 287.583 495.285 288.493C495.285 288.962 495.226 289.424 495.109 289.879C495.006 290.319 494.838 290.759 494.603 291.199C494.383 291.639 494.097 292.093 493.745 292.563C493.408 293.032 492.997 293.516 492.513 294.015L488.091 298.679V298.041H495.901V299.955H485.825ZM503.504 300.153C502.815 300.153 502.14 300.087 501.48 299.955C500.835 299.808 500.226 299.603 499.654 299.339C499.097 299.06 498.606 298.73 498.18 298.349L498.972 296.589C499.662 297.146 500.373 297.557 501.106 297.821C501.84 298.085 502.617 298.217 503.438 298.217C504.142 298.217 504.736 298.114 505.22 297.909C505.704 297.703 506.064 297.403 506.298 297.007C506.548 296.611 506.672 296.134 506.672 295.577C506.672 294.741 506.394 294.117 505.836 293.707C505.294 293.281 504.502 293.069 503.46 293.069H501.062V291.155H503.24C503.871 291.155 504.406 291.052 504.846 290.847C505.286 290.627 505.624 290.326 505.858 289.945C506.108 289.549 506.232 289.072 506.232 288.515C506.232 287.767 505.983 287.195 505.484 286.799C505 286.388 504.289 286.183 503.35 286.183C502.558 286.183 501.825 286.322 501.15 286.601C500.476 286.879 499.838 287.305 499.236 287.877L498.444 286.139C499.046 285.537 499.794 285.075 500.688 284.753C501.598 284.415 502.544 284.247 503.526 284.247C504.553 284.247 505.433 284.408 506.166 284.731C506.914 285.053 507.479 285.515 507.86 286.117C508.256 286.718 508.454 287.437 508.454 288.273C508.454 289.211 508.19 290.025 507.662 290.715C507.149 291.389 506.438 291.837 505.528 292.057V291.815C506.247 291.932 506.856 292.167 507.354 292.519C507.853 292.871 508.234 293.318 508.498 293.861C508.762 294.403 508.894 295.027 508.894 295.731C508.894 296.64 508.674 297.432 508.234 298.107C507.809 298.767 507.193 299.273 506.386 299.625C505.58 299.977 504.619 300.153 503.504 300.153ZM511.636 299.955V297.337H514.254V299.955H511.636ZM521.917 300.153C521.227 300.153 520.553 300.087 519.893 299.955C519.247 299.808 518.639 299.603 518.067 299.339C517.509 299.06 517.018 298.73 516.593 298.349L517.385 296.589C518.074 297.146 518.785 297.557 519.519 297.821C520.252 298.085 521.029 298.217 521.851 298.217C522.555 298.217 523.149 298.114 523.633 297.909C524.117 297.703 524.476 297.403 524.711 297.007C524.96 296.611 525.085 296.134 525.085 295.577C525.085 294.741 524.806 294.117 524.249 293.707C523.706 293.281 522.914 293.069 521.873 293.069H519.475V291.155H521.653C522.283 291.155 522.819 291.052 523.259 290.847C523.699 290.627 524.036 290.326 524.271 289.945C524.52 289.549 524.645 289.072 524.645 288.515C524.645 287.767 524.395 287.195 523.897 286.799C523.413 286.388 522.701 286.183 521.763 286.183C520.971 286.183 520.237 286.322 519.563 286.601C518.888 286.879 518.25 287.305 517.649 287.877L516.857 286.139C517.458 285.537 518.206 285.075 519.101 284.753C520.01 284.415 520.956 284.247 521.939 284.247C522.965 284.247 523.845 284.408 524.579 284.731C525.327 285.053 525.891 285.515 526.273 286.117C526.669 286.718 526.867 287.437 526.867 288.273C526.867 289.211 526.603 290.025 526.075 290.715C525.561 291.389 524.85 291.837 523.941 292.057V291.815C524.659 291.932 525.268 292.167 525.767 292.519C526.265 292.871 526.647 293.318 526.911 293.861C527.175 294.403 527.307 295.027 527.307 295.731C527.307 296.64 527.087 297.432 526.647 298.107C526.221 298.767 525.605 299.273 524.799 299.625C523.992 299.977 523.031 300.153 521.917 300.153ZM535.35 300.153C534.147 300.153 533.135 299.845 532.314 299.229C531.493 298.613 530.869 297.718 530.444 296.545C530.019 295.357 529.806 293.905 529.806 292.189C529.806 290.443 530.019 288.984 530.444 287.811C530.869 286.637 531.493 285.75 532.314 285.149C533.135 284.547 534.147 284.247 535.35 284.247C536.567 284.247 537.587 284.547 538.408 285.149C539.229 285.735 539.845 286.615 540.256 287.789C540.681 288.962 540.894 290.421 540.894 292.167C540.894 293.883 540.681 295.335 540.256 296.523C539.831 297.711 539.207 298.613 538.386 299.229C537.565 299.845 536.553 300.153 535.35 300.153ZM535.35 298.261C536.479 298.261 537.308 297.769 537.836 296.787C538.379 295.804 538.65 294.264 538.65 292.167C538.65 290.069 538.379 288.544 537.836 287.591C537.308 286.623 536.479 286.139 535.35 286.139C534.235 286.139 533.407 286.623 532.864 287.591C532.321 288.544 532.05 290.069 532.05 292.167C532.05 294.264 532.321 295.804 532.864 296.787C533.407 297.769 534.235 298.261 535.35 298.261ZM549.525 299.955V284.445H555.949C557.078 284.445 558.031 284.635 558.809 285.017C559.586 285.383 560.173 285.919 560.569 286.623C560.979 287.327 561.185 288.177 561.185 289.175C561.185 290.172 560.979 291.03 560.569 291.749C560.173 292.453 559.586 292.995 558.809 293.377C558.031 293.743 557.078 293.927 555.949 293.927H551.813V299.955H549.525ZM551.813 292.101H555.619C556.719 292.101 557.547 291.859 558.105 291.375C558.677 290.876 558.963 290.143 558.963 289.175C558.963 288.221 558.677 287.503 558.105 287.019C557.547 286.52 556.719 286.271 555.619 286.271H551.813V292.101ZM563.684 299.955V284.445H565.598L571.692 295.797H571.01L577.06 284.445H578.93V299.955H576.884V287.679H577.368L572.022 297.579H570.636L565.224 287.657H565.752V299.955H563.684Z" fill="#DDC190"/>
<path d="M352.667 272.977C352.667 274.45 351.473 275.644 350 275.644C348.527 275.644 347.333 274.45 347.333 272.977C347.333 271.505 348.527 270.311 350 270.311C351.473 270.311 352.667 271.505 352.667 272.977ZM370 273.477H350V272.477H370V273.477Z" fill="#BABABA"/>
<path d="M143.214 310.805V312.515H133.854V320.585H141.954V322.235H133.854V331.955H131.724V310.805H143.214ZM146.127 310.715C146.127 310.275 146.267 309.925 146.547 309.665C146.847 309.405 147.227 309.275 147.687 309.275C148.147 309.275 148.517 309.405 148.797 309.665C149.077 309.925 149.217 310.275 149.217 310.715C149.217 311.135 149.077 311.475 148.797 311.735C148.517 311.995 148.147 312.125 147.687 312.125C147.227 312.125 146.847 311.995 146.547 311.735C146.267 311.475 146.127 311.135 146.127 310.715ZM148.737 315.575V331.955H146.607V315.575H148.737ZM160.426 330.425C161.906 330.425 163.146 330.055 164.146 329.315C165.146 328.575 165.746 327.575 165.946 326.315H168.166C167.866 328.055 167.036 329.465 165.676 330.545C164.316 331.625 162.596 332.165 160.516 332.165C158.956 332.165 157.566 331.835 156.346 331.175C155.146 330.495 154.206 329.525 153.526 328.265C152.846 326.985 152.506 325.485 152.506 323.765C152.506 322.045 152.846 320.555 153.526 319.295C154.206 318.015 155.146 317.045 156.346 316.385C157.566 315.705 158.956 315.365 160.516 315.365C162.116 315.365 163.496 315.705 164.656 316.385C165.836 317.045 166.726 317.935 167.326 319.055C167.946 320.175 168.256 321.395 168.256 322.715C168.256 323.275 168.216 323.785 168.136 324.245H154.576C154.596 325.625 154.876 326.785 155.416 327.725C155.976 328.645 156.696 329.325 157.576 329.765C158.456 330.205 159.406 330.425 160.426 330.425ZM160.516 317.075C159.456 317.075 158.486 317.295 157.606 317.735C156.726 318.175 156.006 318.855 155.446 319.775C154.906 320.675 154.616 321.805 154.576 323.165H166.156C166.236 321.825 166.016 320.695 165.496 319.775C164.976 318.855 164.276 318.175 163.396 317.735C162.516 317.295 161.556 317.075 160.516 317.075ZM176.986 315.365C178.766 315.365 180.196 315.835 181.276 316.775C182.356 317.715 183.016 318.985 183.256 320.585H181.246C181.126 319.525 180.686 318.655 179.926 317.975C179.186 317.275 178.186 316.925 176.926 316.925C175.846 316.925 174.996 317.195 174.376 317.735C173.776 318.255 173.476 318.955 173.476 319.835C173.476 320.495 173.666 321.025 174.046 321.425C174.446 321.825 174.936 322.135 175.516 322.355C176.096 322.555 176.876 322.765 177.856 322.985C179.056 323.265 180.016 323.555 180.736 323.855C181.476 324.135 182.106 324.585 182.626 325.205C183.146 325.825 183.406 326.665 183.406 327.725C183.406 329.025 182.916 330.095 181.936 330.935C180.976 331.755 179.696 332.165 178.096 332.165C176.216 332.165 174.676 331.705 173.476 330.785C172.276 329.845 171.566 328.565 171.346 326.945H173.386C173.506 328.025 173.976 328.905 174.796 329.585C175.616 330.265 176.726 330.605 178.126 330.605C179.166 330.605 179.976 330.335 180.556 329.795C181.136 329.255 181.426 328.555 181.426 327.695C181.426 326.995 181.226 326.435 180.826 326.015C180.426 325.595 179.926 325.285 179.326 325.085C178.746 324.865 177.946 324.635 176.926 324.395C175.746 324.115 174.796 323.835 174.076 323.555C173.376 323.275 172.776 322.845 172.276 322.265C171.776 321.665 171.526 320.855 171.526 319.835C171.526 318.495 172.016 317.415 172.996 316.595C173.976 315.775 175.306 315.365 176.986 315.365ZM194.681 330.095V331.955H192.731C191.151 331.955 189.971 331.585 189.191 330.845C188.411 330.085 188.021 328.815 188.021 327.035V317.405H185.531V315.575H188.021V311.435H190.151V315.575H194.651V317.405H190.151V327.065C190.151 328.225 190.361 329.025 190.781 329.465C191.201 329.885 191.941 330.095 193.001 330.095H194.681ZM205.04 315.365C206.7 315.365 208.11 315.795 209.27 316.655C210.45 317.515 211.26 318.655 211.7 320.075V315.575H213.77V331.955H211.7V327.455C211.26 328.875 210.45 330.015 209.27 330.875C208.11 331.735 206.7 332.165 205.04 332.165C203.56 332.165 202.23 331.825 201.05 331.145C199.89 330.465 198.98 329.495 198.32 328.235C197.68 326.955 197.36 325.465 197.36 323.765C197.36 322.045 197.68 320.555 198.32 319.295C198.98 318.015 199.89 317.045 201.05 316.385C202.21 315.705 203.54 315.365 205.04 315.365ZM205.58 317.225C203.74 317.225 202.26 317.815 201.14 318.995C200.04 320.155 199.49 321.745 199.49 323.765C199.49 325.785 200.04 327.385 201.14 328.565C202.26 329.725 203.74 330.305 205.58 330.305C206.74 330.305 207.78 330.035 208.7 329.495C209.64 328.955 210.37 328.195 210.89 327.215C211.43 326.215 211.7 325.065 211.7 323.765C211.7 322.465 211.43 321.325 210.89 320.345C210.37 319.345 209.64 318.575 208.7 318.035C207.78 317.495 206.74 317.225 205.58 317.225Z" fill="#333333"/>
<path d="M128.329 363.141C127.126 363.141 126.114 362.833 125.293 362.217C124.472 361.601 123.848 360.707 123.423 359.533C122.998 358.345 122.785 356.893 122.785 355.177C122.785 353.432 122.998 351.973 123.423 350.799C123.848 349.626 124.472 348.739 125.293 348.137C126.114 347.536 127.126 347.235 128.329 347.235C129.546 347.235 130.566 347.536 131.387 348.137C132.208 348.724 132.824 349.604 133.235 350.777C133.66 351.951 133.873 353.41 133.873 355.155C133.873 356.871 133.66 358.323 133.235 359.511C132.81 360.699 132.186 361.601 131.365 362.217C130.544 362.833 129.532 363.141 128.329 363.141ZM128.329 361.249C129.458 361.249 130.287 360.758 130.815 359.775C131.358 358.793 131.629 357.253 131.629 355.155C131.629 353.058 131.358 351.533 130.815 350.579C130.287 349.611 129.458 349.127 128.329 349.127C127.214 349.127 126.386 349.611 125.843 350.579C125.3 351.533 125.029 353.058 125.029 355.155C125.029 357.253 125.3 358.793 125.843 359.775C126.386 360.758 127.214 361.249 128.329 361.249ZM141.52 363.141C140.318 363.141 139.306 362.833 138.484 362.217C137.663 361.601 137.04 360.707 136.614 359.533C136.189 358.345 135.976 356.893 135.976 355.177C135.976 353.432 136.189 351.973 136.614 350.799C137.04 349.626 137.663 348.739 138.484 348.137C139.306 347.536 140.318 347.235 141.52 347.235C142.738 347.235 143.757 347.536 144.578 348.137C145.4 348.724 146.016 349.604 146.426 350.777C146.852 351.951 147.064 353.41 147.064 355.155C147.064 356.871 146.852 358.323 146.426 359.511C146.001 360.699 145.378 361.601 144.556 362.217C143.735 362.833 142.723 363.141 141.52 363.141ZM141.52 361.249C142.65 361.249 143.478 360.758 144.006 359.775C144.549 358.793 144.82 357.253 144.82 355.155C144.82 353.058 144.549 351.533 144.006 350.579C143.478 349.611 142.65 349.127 141.52 349.127C140.406 349.127 139.577 349.611 139.034 350.579C138.492 351.533 138.22 353.058 138.22 355.155C138.22 357.253 138.492 358.793 139.034 359.775C139.577 360.758 140.406 361.249 141.52 361.249ZM149.41 362.943V360.325H152.028V362.943H149.41ZM159.932 363.141C158.73 363.141 157.718 362.833 156.896 362.217C156.075 361.601 155.452 360.707 155.026 359.533C154.601 358.345 154.388 356.893 154.388 355.177C154.388 353.432 154.601 351.973 155.026 350.799C155.452 349.626 156.075 348.739 156.896 348.137C157.718 347.536 158.73 347.235 159.932 347.235C161.15 347.235 162.169 347.536 162.99 348.137C163.812 348.724 164.428 349.604 164.838 350.777C165.264 351.951 165.476 353.41 165.476 355.155C165.476 356.871 165.264 358.323 164.838 359.511C164.413 360.699 163.79 361.601 162.968 362.217C162.147 362.833 161.135 363.141 159.932 363.141ZM159.932 361.249C161.062 361.249 161.89 360.758 162.418 359.775C162.961 358.793 163.232 357.253 163.232 355.155C163.232 353.058 162.961 351.533 162.418 350.579C161.89 349.611 161.062 349.127 159.932 349.127C158.818 349.127 157.989 349.611 157.446 350.579C156.904 351.533 156.632 353.058 156.632 355.155C156.632 357.253 156.904 358.793 157.446 359.775C157.989 360.758 158.818 361.249 159.932 361.249ZM173.124 363.141C171.921 363.141 170.909 362.833 170.088 362.217C169.267 361.601 168.643 360.707 168.218 359.533C167.793 358.345 167.58 356.893 167.58 355.177C167.58 353.432 167.793 351.973 168.218 350.799C168.643 349.626 169.267 348.739 170.088 348.137C170.909 347.536 171.921 347.235 173.124 347.235C174.341 347.235 175.361 347.536 176.182 348.137C177.003 348.724 177.619 349.604 178.03 350.777C178.455 351.951 178.668 353.41 178.668 355.155C178.668 356.871 178.455 358.323 178.03 359.511C177.605 360.699 176.981 361.601 176.16 362.217C175.339 362.833 174.327 363.141 173.124 363.141ZM173.124 361.249C174.253 361.249 175.082 360.758 175.61 359.775C176.153 358.793 176.424 357.253 176.424 355.155C176.424 353.058 176.153 351.533 175.61 350.579C175.082 349.611 174.253 349.127 173.124 349.127C172.009 349.127 171.181 349.611 170.638 350.579C170.095 351.533 169.824 353.058 169.824 355.155C169.824 357.253 170.095 358.793 170.638 359.775C171.181 360.758 172.009 361.249 173.124 361.249ZM187.299 362.943V347.433H189.587V354.121H198.277V347.433H200.543V362.943H198.277V356.035H189.587V362.943H187.299ZM209.334 363.141C208.527 363.141 207.757 363.075 207.024 362.943C206.305 362.797 205.638 362.591 205.022 362.327C204.42 362.049 203.885 361.719 203.416 361.337L204.142 359.533C204.64 359.9 205.154 360.208 205.682 360.457C206.21 360.707 206.774 360.897 207.376 361.029C207.977 361.147 208.63 361.205 209.334 361.205C210.58 361.205 211.497 360.985 212.084 360.545C212.685 360.091 212.986 359.504 212.986 358.785C212.986 358.389 212.89 358.052 212.7 357.773C212.524 357.495 212.23 357.26 211.82 357.069C211.409 356.864 210.874 356.695 210.214 356.563L207.86 356.079C206.466 355.786 205.425 355.302 204.736 354.627C204.061 353.953 203.724 353.043 203.724 351.899C203.724 350.961 203.973 350.139 204.472 349.435C204.97 348.731 205.652 348.189 206.518 347.807C207.398 347.426 208.41 347.235 209.554 347.235C210.258 347.235 210.925 347.309 211.556 347.455C212.201 347.587 212.795 347.793 213.338 348.071C213.895 348.35 214.379 348.687 214.79 349.083L214.042 350.821C213.411 350.264 212.729 349.853 211.996 349.589C211.262 349.311 210.441 349.171 209.532 349.171C208.813 349.171 208.182 349.281 207.64 349.501C207.112 349.721 206.701 350.029 206.408 350.425C206.129 350.821 205.99 351.291 205.99 351.833C205.99 352.449 206.188 352.941 206.584 353.307C206.98 353.674 207.64 353.953 208.564 354.143L210.896 354.627C212.363 354.935 213.455 355.412 214.174 356.057C214.892 356.703 215.252 357.561 215.252 358.631C215.252 359.526 215.01 360.318 214.526 361.007C214.042 361.682 213.36 362.21 212.48 362.591C211.6 362.958 210.551 363.141 209.334 363.141Z" fill="#DDC190"/>
<path d="M270.918 325.462L271.504 324.974C275.41 321.947 277.949 317.357 278.34 312.474L278.438 311.986C278.438 311.498 278.828 311.205 279.219 311.205C279.707 311.302 280 311.693 280 312.084L279.902 312.572C279.414 317.943 276.68 322.923 272.48 326.244L271.797 326.732C271.504 326.927 271.016 326.927 270.723 326.537C270.527 326.244 270.527 325.755 270.918 325.462ZM259.688 314.33C259.688 315.209 260.371 315.892 261.25 315.892C262.031 315.892 262.812 315.209 262.812 314.33C262.812 313.548 262.031 312.767 261.25 312.767C260.371 312.767 259.688 313.548 259.688 314.33ZM264.375 314.33C264.375 316.087 262.91 317.455 261.25 317.455C259.492 317.455 258.125 316.087 258.125 314.33C258.125 312.669 259.492 311.205 261.25 311.205C262.91 311.205 264.375 312.669 264.375 314.33ZM256.66 357.591C256.172 358.763 257.441 360.033 258.613 359.544L267.598 356.224L259.98 348.607L256.66 357.591ZM269.16 355.638L276.68 352.806L263.398 339.525L260.566 347.044L269.16 355.638ZM264.082 338.06L278.145 352.123C278.242 352.123 278.242 352.22 278.242 352.22L283.613 350.169C284.688 349.779 284.98 348.412 284.199 347.63L268.574 332.005C267.793 331.224 266.426 331.517 266.035 332.591L263.984 337.962C263.984 337.962 264.082 337.962 264.082 338.06ZM269.648 330.931L285.273 346.556C286.934 348.119 286.25 350.853 284.199 351.634L259.199 361.009C256.758 361.986 254.219 359.447 255.195 357.005L264.57 332.005C265.352 329.955 268.086 329.271 269.648 330.931ZM301.875 325.267C300.996 325.267 300.312 326.048 300.312 326.83C300.312 327.709 300.996 328.392 301.875 328.392C302.656 328.392 303.438 327.709 303.438 326.83C303.438 326.048 302.656 325.267 301.875 325.267ZM301.875 329.955C300.117 329.955 298.75 328.587 298.75 326.83C298.75 325.169 300.117 323.705 301.875 323.705C303.535 323.705 305 325.169 305 326.83C305 328.587 303.535 329.955 301.875 329.955ZM300.312 354.955C300.312 355.834 300.996 356.517 301.875 356.517C302.656 356.517 303.438 355.834 303.438 354.955C303.438 354.173 302.656 353.392 301.875 353.392C300.996 353.392 300.312 354.173 300.312 354.955ZM305 354.955C305 356.712 303.535 358.08 301.875 358.08C300.117 358.08 298.75 356.712 298.75 354.955C298.75 353.294 300.117 351.83 301.875 351.83C303.535 351.83 305 353.294 305 354.955ZM289.668 345.482C289.277 345.189 289.277 344.701 289.473 344.408L291.621 341.576C293.867 338.744 297.285 336.888 300.898 336.595L304.121 336.302C304.512 336.205 304.902 336.498 305 336.986C305 337.376 304.707 337.767 304.219 337.767L301.094 338.06C297.871 338.353 294.844 340.013 292.891 342.552L290.742 345.287C290.449 345.677 289.961 345.677 289.668 345.482ZM304.707 312.572L303.047 314.037C301.875 315.111 300.215 315.697 298.652 315.697C296.113 315.599 293.965 317.357 293.672 319.798L292.988 324.095C292.402 327.709 289.375 330.541 285.664 330.834C284.297 330.931 283.027 331.419 282.051 332.298L281.27 332.982C280.879 333.177 280.391 333.177 280.195 332.884C279.902 332.494 279.902 332.005 280.195 331.712L280.977 331.126C282.246 330.052 283.906 329.369 285.566 329.271C288.496 328.978 290.938 326.83 291.426 323.9L292.109 319.603C292.598 316.38 295.43 314.037 298.652 314.134C299.922 314.134 301.094 313.744 301.973 312.865L303.633 311.4C304.023 311.205 304.512 311.205 304.805 311.498C305 311.791 305 312.376 304.707 312.572Z" fill="#DDC190"/>
<path d="M347.333 335.955C347.333 337.427 348.527 338.621 350 338.621C351.473 338.621 352.667 337.427 352.667 335.955C352.667 334.482 351.473 333.288 350 333.288C348.527 333.288 347.333 334.482 347.333 335.955ZM330 336.455H350V335.455H330V336.455Z" fill="#BABABA"/>
<path d="M428.594 437.971C428.887 438.557 429.18 438.947 429.473 439.338C426.543 440.607 423.32 441.193 420 441.193C406.133 441.193 395 430.06 395 416.193C395 402.424 406.133 391.193 420 391.193C433.77 391.193 445 402.424 445 416.193C445 419.611 444.316 422.932 443.047 425.861C442.559 425.568 442.07 425.373 441.582 425.275C442.754 422.443 443.438 419.416 443.438 416.193C443.438 403.303 432.891 392.756 420 392.756C407.012 392.756 396.562 403.303 396.562 416.193C396.562 429.182 407.012 439.631 420 439.631C423.027 439.631 425.957 439.045 428.594 437.971ZM416.094 418.439C416.094 418.049 416.582 417.756 416.973 417.853C418.047 418.049 419.219 418.342 420.293 418.732C421.074 419.123 421.953 419.514 422.637 420.1C423.32 420.685 423.906 421.467 423.906 422.443C423.906 423.517 423.223 424.201 422.539 424.689C421.953 425.08 421.27 425.373 420.586 425.568C421.27 425.861 421.953 426.154 422.539 426.545C423.223 427.033 423.906 427.717 423.906 428.693C423.906 429.767 423.32 430.646 422.637 431.232C421.953 431.818 421.074 432.307 420.195 432.6C419.219 432.99 418.047 433.283 416.973 433.381C416.484 433.478 416.094 433.185 416.094 432.697C415.996 432.307 416.289 431.916 416.777 431.916C417.754 431.721 418.73 431.525 419.707 431.135C420.391 430.842 421.074 430.451 421.562 430.06C422.051 429.67 422.344 429.182 422.344 428.693C422.344 428.498 422.148 428.205 421.66 427.814C421.172 427.521 420.488 427.228 419.707 427.033C419.023 426.74 418.242 426.642 417.656 426.545C417.461 426.447 417.266 426.447 417.168 426.447C416.875 426.447 416.777 426.447 416.582 426.35C416.289 426.252 416.094 425.959 416.094 425.568C416.094 425.275 416.289 424.982 416.582 424.885C416.777 424.787 416.875 424.787 417.168 424.787C417.266 424.787 417.461 424.787 417.656 424.689C418.242 424.592 419.023 424.494 419.707 424.201C420.488 424.006 421.172 423.713 421.66 423.42C422.148 423.029 422.344 422.736 422.344 422.443C422.344 422.15 422.051 421.76 421.562 421.271C421.074 420.881 420.391 420.49 419.707 420.197C418.926 419.904 418.145 419.709 417.656 419.514C417.168 419.416 416.973 419.416 416.68 419.318C416.289 419.318 415.996 418.83 416.094 418.439ZM412.188 413.068C411.309 413.068 410.625 412.385 410.625 411.506C410.625 410.725 411.309 409.943 412.188 409.943C413.066 409.943 413.75 410.725 413.75 411.506C413.75 412.385 413.066 413.068 412.188 413.068ZM427.715 410.725C426.348 410.725 424.785 411.603 423.711 413.459C423.516 413.85 423.027 414.045 422.637 413.752C422.246 413.557 422.148 413.068 422.344 412.775C423.613 410.432 425.664 409.162 427.715 409.162C429.863 409.162 431.816 410.432 433.086 412.775C433.281 413.068 433.184 413.557 432.793 413.752C432.402 414.045 431.914 413.85 431.719 413.459C430.645 411.603 429.18 410.725 427.715 410.725ZM437.285 426.74V426.642L437.578 427.717L438.555 427.521C440.996 426.838 443.438 428.303 444.023 430.744C444.609 433.185 443.242 435.725 440.898 436.408L433.574 438.459C432.305 438.752 431.035 438.068 430.645 436.799L428.691 429.084C428.105 426.642 429.473 424.103 431.816 423.42C434.258 422.736 436.699 424.299 437.285 426.74ZM432.305 424.885L432.207 424.982C430.742 425.373 429.766 427.033 430.254 428.693L432.207 436.408C432.305 436.799 432.793 436.994 433.184 436.896L440.508 434.846C441.973 434.455 442.949 432.795 442.559 431.135C442.07 429.475 440.508 428.596 439.043 428.986L437.188 429.475C436.992 429.572 436.797 429.475 436.602 429.377C436.406 429.279 436.309 429.084 436.211 428.889L435.82 427.033C435.332 425.471 433.77 424.494 432.305 424.885Z" fill="#DDC190"/>
<path d="M497.725 373.793V375.503H488.365V383.573H496.465V385.223H488.365V394.943H486.235V373.793H497.725ZM500.638 373.703C500.638 373.263 500.778 372.913 501.058 372.653C501.358 372.393 501.738 372.263 502.198 372.263C502.658 372.263 503.028 372.393 503.308 372.653C503.588 372.913 503.728 373.263 503.728 373.703C503.728 374.123 503.588 374.463 503.308 374.723C503.028 374.983 502.658 375.113 502.198 375.113C501.738 375.113 501.358 374.983 501.058 374.723C500.778 374.463 500.638 374.123 500.638 373.703ZM503.248 378.563V394.943H501.118V378.563H503.248ZM515.988 378.263C517.888 378.263 519.428 378.873 520.608 380.093C521.808 381.293 522.408 383.063 522.408 385.403V394.943H520.338V385.553C520.338 383.773 519.888 382.413 518.988 381.473C518.088 380.513 516.858 380.033 515.298 380.033C513.658 380.033 512.348 380.563 511.368 381.623C510.408 382.663 509.928 384.203 509.928 386.243V394.943H507.798V378.563H509.928V382.583C510.348 381.183 511.108 380.113 512.208 379.373C513.308 378.633 514.568 378.263 515.988 378.263ZM541.534 378.353C543.194 378.353 544.604 378.783 545.764 379.643C546.944 380.503 547.744 381.643 548.164 383.063V372.743H550.264V394.943H548.164V390.443C547.744 391.863 546.944 393.003 545.764 393.863C544.604 394.723 543.194 395.153 541.534 395.153C540.054 395.153 538.724 394.813 537.544 394.133C536.384 393.453 535.474 392.483 534.814 391.223C534.174 389.943 533.854 388.453 533.854 386.753C533.854 385.033 534.174 383.543 534.814 382.283C535.474 381.003 536.384 380.033 537.544 379.373C538.704 378.693 540.034 378.353 541.534 378.353ZM542.074 380.213C540.234 380.213 538.754 380.803 537.634 381.983C536.534 383.143 535.984 384.733 535.984 386.753C535.984 388.773 536.534 390.373 537.634 391.553C538.754 392.713 540.234 393.293 542.074 393.293C543.234 393.293 544.274 393.023 545.194 392.483C546.134 391.943 546.864 391.183 547.384 390.203C547.924 389.203 548.194 388.053 548.194 386.753C548.194 385.453 547.924 384.313 547.384 383.333C546.864 382.333 546.134 381.563 545.194 381.023C544.274 380.483 543.234 380.213 542.074 380.213ZM561.959 393.413C563.439 393.413 564.679 393.043 565.679 392.303C566.679 391.563 567.279 390.563 567.479 389.303H569.699C569.399 391.043 568.569 392.453 567.209 393.533C565.849 394.613 564.129 395.153 562.049 395.153C560.489 395.153 559.099 394.823 557.879 394.163C556.679 393.483 555.739 392.513 555.059 391.253C554.379 389.973 554.039 388.473 554.039 386.753C554.039 385.033 554.379 383.543 555.059 382.283C555.739 381.003 556.679 380.033 557.879 379.373C559.099 378.693 560.489 378.353 562.049 378.353C563.649 378.353 565.029 378.693 566.189 379.373C567.369 380.033 568.259 380.923 568.859 382.043C569.479 383.163 569.789 384.383 569.789 385.703C569.789 386.263 569.749 386.773 569.669 387.233H556.109C556.129 388.613 556.409 389.773 556.949 390.713C557.509 391.633 558.229 392.313 559.109 392.753C559.989 393.193 560.939 393.413 561.959 393.413ZM562.049 380.063C560.989 380.063 560.019 380.283 559.139 380.723C558.259 381.163 557.539 381.843 556.979 382.763C556.439 383.663 556.149 384.793 556.109 386.153H567.689C567.769 384.813 567.549 383.683 567.029 382.763C566.509 381.843 565.809 381.163 564.929 380.723C564.049 380.283 563.089 380.063 562.049 380.063ZM583.492 372.743V394.943H581.362V372.743H583.492ZM594.942 378.353C596.602 378.353 598.012 378.783 599.172 379.643C600.352 380.503 601.162 381.643 601.602 383.063V378.563H603.672V394.943H601.602V390.443C601.162 391.863 600.352 393.003 599.172 393.863C598.012 394.723 596.602 395.153 594.942 395.153C593.462 395.153 592.132 394.813 590.952 394.133C589.792 393.453 588.882 392.483 588.222 391.223C587.582 389.943 587.262 388.453 587.262 386.753C587.262 385.033 587.582 383.543 588.222 382.283C588.882 381.003 589.792 380.033 590.952 379.373C592.112 378.693 593.442 378.353 594.942 378.353ZM595.482 380.213C593.642 380.213 592.162 380.803 591.042 381.983C589.942 383.143 589.392 384.733 589.392 386.753C589.392 388.773 589.942 390.373 591.042 391.553C592.162 392.713 593.642 393.293 595.482 393.293C596.642 393.293 597.682 393.023 598.602 392.483C599.542 391.943 600.272 391.183 600.792 390.203C601.332 389.203 601.602 388.053 601.602 386.753C601.602 385.453 601.332 384.313 600.792 383.333C600.272 382.333 599.542 381.563 598.602 381.023C597.682 380.483 596.642 380.213 595.482 380.213ZM493.135 407.213C491.615 407.193 490.545 407.473 489.925 408.053C489.325 408.613 489.025 409.563 489.025 410.903V411.563H493.135V413.423H489.025V427.943H486.925V413.423H484.495V411.563H486.925V410.753C486.925 408.913 487.425 407.533 488.425 406.613C489.425 405.693 490.995 405.273 493.135 405.353V407.213ZM495.804 406.703C495.804 406.263 495.944 405.913 496.224 405.653C496.524 405.393 496.904 405.263 497.364 405.263C497.824 405.263 498.194 405.393 498.474 405.653C498.754 405.913 498.894 406.263 498.894 406.703C498.894 407.123 498.754 407.463 498.474 407.723C498.194 407.983 497.824 408.113 497.364 408.113C496.904 408.113 496.524 407.983 496.224 407.723C495.944 407.463 495.804 407.123 495.804 406.703ZM498.414 411.563V427.943H496.284V411.563H498.414ZM510.104 426.413C511.584 426.413 512.824 426.043 513.824 425.303C514.824 424.563 515.424 423.563 515.624 422.303H517.844C517.544 424.043 516.714 425.453 515.354 426.533C513.994 427.613 512.274 428.153 510.194 428.153C508.634 428.153 507.244 427.823 506.024 427.163C504.824 426.483 503.884 425.513 503.204 424.253C502.524 422.973 502.184 421.473 502.184 419.753C502.184 418.033 502.524 416.543 503.204 415.283C503.884 414.003 504.824 413.033 506.024 412.373C507.244 411.693 508.634 411.353 510.194 411.353C511.794 411.353 513.174 411.693 514.334 412.373C515.514 413.033 516.404 413.923 517.004 415.043C517.624 416.163 517.934 417.383 517.934 418.703C517.934 419.263 517.894 419.773 517.814 420.233H504.254C504.274 421.613 504.554 422.773 505.094 423.713C505.654 424.633 506.374 425.313 507.254 425.753C508.134 426.193 509.084 426.413 510.104 426.413ZM510.194 413.063C509.134 413.063 508.164 413.283 507.284 413.723C506.404 414.163 505.684 414.843 505.124 415.763C504.584 416.663 504.294 417.793 504.254 419.153H515.834C515.914 417.813 515.694 416.683 515.174 415.763C514.654 414.843 513.954 414.163 513.074 413.723C512.194 413.283 511.234 413.063 510.194 413.063ZM526.664 411.353C528.444 411.353 529.874 411.823 530.954 412.763C532.034 413.703 532.694 414.973 532.934 416.573H530.924C530.804 415.513 530.364 414.643 529.604 413.963C528.864 413.263 527.864 412.913 526.604 412.913C525.524 412.913 524.674 413.183 524.054 413.723C523.454 414.243 523.154 414.943 523.154 415.823C523.154 416.483 523.344 417.013 523.724 417.413C524.124 417.813 524.614 418.123 525.194 418.343C525.774 418.543 526.554 418.753 527.534 418.973C528.734 419.253 529.694 419.543 530.414 419.843C531.154 420.123 531.784 420.573 532.304 421.193C532.824 421.813 533.084 422.653 533.084 423.713C533.084 425.013 532.594 426.083 531.614 426.923C530.654 427.743 529.374 428.153 527.774 428.153C525.894 428.153 524.354 427.693 523.154 426.773C521.954 425.833 521.244 424.553 521.024 422.933H523.064C523.184 424.013 523.654 424.893 524.474 425.573C525.294 426.253 526.404 426.593 527.804 426.593C528.844 426.593 529.654 426.323 530.234 425.783C530.814 425.243 531.104 424.543 531.104 423.683C531.104 422.983 530.904 422.423 530.504 422.003C530.104 421.583 529.604 421.273 529.004 421.073C528.424 420.853 527.624 420.623 526.604 420.383C525.424 420.103 524.474 419.823 523.754 419.543C523.054 419.263 522.454 418.833 521.954 418.253C521.454 417.653 521.204 416.843 521.204 415.823C521.204 414.483 521.694 413.403 522.674 412.583C523.654 411.763 524.984 411.353 526.664 411.353ZM544.359 426.083V427.943H542.409C540.829 427.943 539.649 427.573 538.869 426.833C538.089 426.073 537.699 424.803 537.699 423.023V413.393H535.209V411.563H537.699V407.423H539.829V411.563H544.329V413.393H539.829V423.053C539.829 424.213 540.039 425.013 540.459 425.453C540.879 425.873 541.619 426.083 542.679 426.083H544.359ZM554.717 411.353C556.377 411.353 557.787 411.783 558.947 412.643C560.127 413.503 560.937 414.643 561.377 416.063V411.563H563.447V427.943H561.377V423.443C560.937 424.863 560.127 426.003 558.947 426.863C557.787 427.723 556.377 428.153 554.717 428.153C553.237 428.153 551.907 427.813 550.727 427.133C549.567 426.453 548.657 425.483 547.997 424.223C547.357 422.943 547.037 421.453 547.037 419.753C547.037 418.033 547.357 416.543 547.997 415.283C548.657 414.003 549.567 413.033 550.727 412.373C551.887 411.693 553.217 411.353 554.717 411.353ZM555.257 413.213C553.417 413.213 551.937 413.803 550.817 414.983C549.717 416.143 549.167 417.733 549.167 419.753C549.167 421.773 549.717 423.373 550.817 424.553C551.937 425.713 553.417 426.293 555.257 426.293C556.417 426.293 557.457 426.023 558.377 425.483C559.317 424.943 560.047 424.183 560.567 423.203C561.107 422.203 561.377 421.053 561.377 419.753C561.377 418.453 561.107 417.313 560.567 416.333C560.047 415.333 559.317 414.563 558.377 414.023C557.457 413.483 556.417 413.213 555.257 413.213Z" fill="#333333"/>
<path d="M490.555 459.13C489.352 459.13 488.34 458.822 487.519 458.206C486.698 457.59 486.074 456.695 485.649 455.522C485.224 454.334 485.011 452.882 485.011 451.166C485.011 449.421 485.224 447.961 485.649 446.788C486.074 445.615 486.698 444.727 487.519 444.126C488.34 443.525 489.352 443.224 490.555 443.224C491.772 443.224 492.792 443.525 493.613 444.126C494.434 444.713 495.05 445.593 495.461 446.766C495.886 447.939 496.099 449.399 496.099 451.144C496.099 452.86 495.886 454.312 495.461 455.5C495.036 456.688 494.412 457.59 493.591 458.206C492.77 458.822 491.758 459.13 490.555 459.13ZM490.555 457.238C491.684 457.238 492.513 456.747 493.041 455.764C493.584 454.781 493.855 453.241 493.855 451.144C493.855 449.047 493.584 447.521 493.041 446.568C492.513 445.6 491.684 445.116 490.555 445.116C489.44 445.116 488.612 445.6 488.069 446.568C487.526 447.521 487.255 449.047 487.255 451.144C487.255 453.241 487.526 454.781 488.069 455.764C488.612 456.747 489.44 457.238 490.555 457.238ZM505.154 458.932V455.786H498.18V454.092L505.55 443.422H507.42V453.872H509.686V455.786H507.42V458.932H505.154ZM505.154 453.872V446.15H505.748L500.028 454.488V453.872H505.154ZM511.636 458.932V456.314H514.254V458.932H511.636ZM521.917 459.13C521.227 459.13 520.553 459.064 519.893 458.932C519.247 458.785 518.639 458.58 518.067 458.316C517.509 458.037 517.018 457.707 516.593 457.326L517.385 455.566C518.074 456.123 518.785 456.534 519.519 456.798C520.252 457.062 521.029 457.194 521.851 457.194C522.555 457.194 523.149 457.091 523.633 456.886C524.117 456.681 524.476 456.38 524.711 455.984C524.96 455.588 525.085 455.111 525.085 454.554C525.085 453.718 524.806 453.095 524.249 452.684C523.706 452.259 522.914 452.046 521.873 452.046H519.475V450.132H521.653C522.283 450.132 522.819 450.029 523.259 449.824C523.699 449.604 524.036 449.303 524.271 448.922C524.52 448.526 524.645 448.049 524.645 447.492C524.645 446.744 524.395 446.172 523.897 445.776C523.413 445.365 522.701 445.16 521.763 445.16C520.971 445.16 520.237 445.299 519.563 445.578C518.888 445.857 518.25 446.282 517.649 446.854L516.857 445.116C517.458 444.515 518.206 444.053 519.101 443.73C520.01 443.393 520.956 443.224 521.939 443.224C522.965 443.224 523.845 443.385 524.579 443.708C525.327 444.031 525.891 444.493 526.273 445.094C526.669 445.695 526.867 446.414 526.867 447.25C526.867 448.189 526.603 449.003 526.075 449.692C525.561 450.367 524.85 450.814 523.941 451.034V450.792C524.659 450.909 525.268 451.144 525.767 451.496C526.265 451.848 526.647 452.295 526.911 452.838C527.175 453.381 527.307 454.004 527.307 454.708C527.307 455.617 527.087 456.409 526.647 457.084C526.221 457.744 525.605 458.25 524.799 458.602C523.992 458.954 523.031 459.13 521.917 459.13ZM535.35 459.13C534.147 459.13 533.135 458.822 532.314 458.206C531.493 457.59 530.869 456.695 530.444 455.522C530.019 454.334 529.806 452.882 529.806 451.166C529.806 449.421 530.019 447.961 530.444 446.788C530.869 445.615 531.493 444.727 532.314 444.126C533.135 443.525 534.147 443.224 535.35 443.224C536.567 443.224 537.587 443.525 538.408 444.126C539.229 444.713 539.845 445.593 540.256 446.766C540.681 447.939 540.894 449.399 540.894 451.144C540.894 452.86 540.681 454.312 540.256 455.5C539.831 456.688 539.207 457.59 538.386 458.206C537.565 458.822 536.553 459.13 535.35 459.13ZM535.35 457.238C536.479 457.238 537.308 456.747 537.836 455.764C538.379 454.781 538.65 453.241 538.65 451.144C538.65 449.047 538.379 447.521 537.836 446.568C537.308 445.6 536.479 445.116 535.35 445.116C534.235 445.116 533.407 445.6 532.864 446.568C532.321 447.521 532.05 449.047 532.05 451.144C532.05 453.241 532.321 454.781 532.864 455.764C533.407 456.747 534.235 457.238 535.35 457.238ZM549.525 458.932V443.422H555.949C557.078 443.422 558.031 443.613 558.809 443.994C559.586 444.361 560.173 444.896 560.569 445.6C560.979 446.304 561.185 447.155 561.185 448.152C561.185 449.149 560.979 450.007 560.569 450.726C560.173 451.43 559.586 451.973 558.809 452.354C558.031 452.721 557.078 452.904 555.949 452.904H551.813V458.932H549.525ZM551.813 451.078H555.619C556.719 451.078 557.547 450.836 558.105 450.352C558.677 449.853 558.963 449.12 558.963 448.152C558.963 447.199 558.677 446.48 558.105 445.996C557.547 445.497 556.719 445.248 555.619 445.248H551.813V451.078ZM563.684 458.932V443.422H565.598L571.692 454.774H571.01L577.06 443.422H578.93V458.932H576.884V446.656H577.368L572.022 456.556H570.636L565.224 446.634H565.752V458.932H563.684Z" fill="#DDC190"/>
<path d="M352.667 415.955C352.667 417.427 351.473 418.621 350 418.621C348.527 418.621 347.333 417.427 347.333 415.955C347.333 414.482 348.527 413.288 350 413.288C351.473 413.288 352.667 414.482 352.667 415.955ZM370 416.455H350V415.455H370V416.455Z" fill="#BABABA"/>
<line x1="350.5" y1="-2.18557e-08" x2="350.5" y2="483.983" stroke="#BABABA"/>
</g>
<defs>
<clipPath id="clip0_3887_244">
<rect width="700" height="483.932" fill="white"/>
</clipPath>
</defs>
</svg>
